<?xml version="1.0" encoding="utf-8"?>
<!-- Generator: Adobe Illustrator 18.1.1, SVG Export Plug-In . SVG Version: 6.00 Build 0)  -->
<svg version="1.1" id="Layer_1" xmlns="http://www.w3.org/2000/svg" xmlns:xlink="http://www.w3.org/1999/xlink" x="0px" y="0px"
	 viewBox="0 0 500 250" enable-background="new 0 0 500 250" xml:space="preserve">
<path fill="#F2F2F2" stroke="#999999" stroke-width="3" stroke-linecap="round" stroke-linejoin="round" stroke-miterlimit="10" d="
	M311.5,209h-123c-2.8,0-5-2.2-5-5V46c0-2.8,2.2-5,5-5h123c2.8,0,5,2.2,5,5v158C316.5,206.8,314.3,209,311.5,209z"/>
<path opacity="0.4" fill="#F2F2F2" stroke="#999999" stroke-width="3" stroke-linecap="round" stroke-linejoin="round" stroke-miterlimit="10" d="
	M456.5,209h-123c-2.8,0-5-2.2-5-5V46c0-2.8,2.2-5,5-5h123c2.8,0,5,2.2,5,5v158C461.5,206.8,459.3,209,456.5,209z"/>
<path opacity="0.4" fill="#F2F2F2" stroke="#999999" stroke-width="3" stroke-linecap="round" stroke-linejoin="round" stroke-miterlimit="10" d="
	M166.5,209h-123c-2.8,0-5-2.2-5-5V46c0-2.8,2.2-5,5-5h123c2.8,0,5,2.2,5,5v158C171.5,206.8,169.3,209,166.5,209z"/>
<circle opacity="0.4" fill="#FFFFFF" stroke="#999999" stroke-width="3" stroke-linecap="round" stroke-linejoin="round" stroke-miterlimit="10" cx="395.2" cy="103.2" r="43.2"/>
<circle fill="#FFFFFF" stroke="#999999" stroke-width="3" stroke-linecap="round" stroke-linejoin="round" stroke-miterlimit="10" cx="250.2" cy="103.2" r="43.2"/>
<circle opacity="0.4" fill="#FFFFFF" stroke="#999999" stroke-width="3" stroke-linecap="round" stroke-linejoin="round" stroke-miterlimit="10" cx="103.2" cy="103.2" r="43.2"/>
<g opacity="0.4">
	<defs>
		<circle id="SVGID_7_" opacity="0.4" cx="395.2" cy="102.2" r="43.2"/>
	</defs>
	<clipPath id="SVGID_1_">
		<use xlink:href="#SVGID_7_"  overflow="visible"/>
	</clipPath>
	<g clip-path="url(#SVGID_1_)">
		
			<rect x="363.1" y="88.1" fill="#E6E6E6" stroke="#999999" stroke-width="1.7962" stroke-linecap="round" stroke-linejoin="round" stroke-miterlimit="10" width="65.9" height="86.7"/>
		
			<rect x="367.5" y="92.5" fill="#FFFFFF" stroke="#999999" stroke-width="0.5987" stroke-linecap="round" stroke-linejoin="round" stroke-miterlimit="10" width="57.3" height="77.7"/>
		<g>
			
				<path fill="#FFFFFF" stroke="#999999" stroke-width="2" stroke-linecap="round" stroke-linejoin="round" stroke-miterlimit="10" d="
				M399.4,86c1.4-3,2.8-7.4,2.8-8.9c0-3.3-2.7-6.3-6-6.3c-3.3,0-6,3.1-6,6.4c0,1.6,1.3,5.8,2.8,8.8h-13.3l3.2,10h26.7l3.2-10H399.4z
				"/>
			
				<circle fill="none" stroke="#999999" stroke-width="0.5987" stroke-linecap="round" stroke-linejoin="round" stroke-miterlimit="10" cx="396.1" cy="77.5" r="2.5"/>
		</g>
		
			<rect x="375.5" y="104.8" fill="#FFFFFF" stroke="#999999" stroke-width="1.7962" stroke-linecap="round" stroke-linejoin="round" stroke-miterlimit="10" width="6.1" height="6.1"/>
		
			<line fill="none" stroke="#999999" stroke-width="2" stroke-linecap="round" stroke-linejoin="round" stroke-miterlimit="10" x1="386" y1="105" x2="410" y2="105"/>
		
			<line fill="none" stroke="#999999" stroke-width="2" stroke-linecap="round" stroke-linejoin="round" stroke-miterlimit="10" x1="386" y1="108" x2="402" y2="108"/>
		
			<rect x="375.5" y="116.9" fill="#FFFFFF" stroke="#999999" stroke-width="1.7962" stroke-linecap="round" stroke-linejoin="round" stroke-miterlimit="10" width="6.1" height="6.1"/>
		
			<line fill="none" stroke="#999999" stroke-width="2" stroke-linecap="round" stroke-linejoin="round" stroke-miterlimit="10" x1="386" y1="120" x2="416" y2="120"/>
		
			<rect x="375.5" y="129.1" fill="#FFFFFF" stroke="#999999" stroke-width="1.7962" stroke-linecap="round" stroke-linejoin="round" stroke-miterlimit="10" width="6.1" height="6.1"/>
		
			<line fill="none" stroke="#999999" stroke-width="2" stroke-linecap="round" stroke-linejoin="round" stroke-miterlimit="10" x1="386" y1="130" x2="414" y2="130"/>
		
			<line fill="none" stroke="#999999" stroke-width="2" stroke-linecap="round" stroke-linejoin="round" stroke-miterlimit="10" x1="386" y1="133" x2="395" y2="133"/>
		
			<rect x="375.5" y="141.2" fill="#FFFFFF" stroke="#999999" stroke-width="1.7962" stroke-linecap="round" stroke-linejoin="round" stroke-miterlimit="10" width="6.1" height="6.1"/>
		
			<line fill="none" stroke="#999999" stroke-width="2" stroke-linecap="round" stroke-linejoin="round" stroke-miterlimit="10" x1="386" y1="144" x2="409" y2="144"/>
		
			<rect x="375.5" y="153.3" fill="#FFFFFF" stroke="#999999" stroke-width="1.7962" stroke-linecap="round" stroke-linejoin="round" stroke-miterlimit="10" width="6.1" height="6.1"/>
		
			<line fill="none" stroke="#999999" stroke-width="2" stroke-linecap="round" stroke-linejoin="round" stroke-miterlimit="10" x1="386" y1="157" x2="416" y2="157"/>
		
			<path fill="none" stroke="#FC7171" stroke-width="1.7962" stroke-linecap="round" stroke-linejoin="round" stroke-miterlimit="10" d="
			M377.2,105.2c0,0,2.2,4.6,2.2,3.4c0-2,1.1-4.8,2.9-6.3"/>
		
			<path fill="none" stroke="#FC7171" stroke-width="1.7962" stroke-linecap="round" stroke-linejoin="round" stroke-miterlimit="10" d="
			M377.2,117.9c0,0,2.2,4.6,2.2,3.4c0-2,1.1-4.8,2.9-6.3"/>
	</g>
</g>
<g>
	<defs>
		<circle id="SVGID_9_" cx="250.2" cy="102.2" r="43.2"/>
	</defs>
	<clipPath id="SVGID_2_">
		<use xlink:href="#SVGID_9_"  overflow="visible"/>
	</clipPath>
	<g clip-path="url(#SVGID_2_)">
		<g>
			<path fill="#E6E6E6" stroke="#999999" stroke-linecap="round" stroke-linejoin="round" stroke-miterlimit="10" d="M256.9,132.7
				c-6.5-0.3-9.1-4-16.7-3.9c-1.5,0-3.4,0.2-4.7,0.6v41.4c0,3.3,3.8,6.7,7.5,6.7h16.5c3.7,0,6.1-3.5,6.1-6.7v-40.6
				C262.5,131.5,260.1,132.8,256.9,132.7z"/>
		</g>
		
			<path fill="none" stroke="#999999" stroke-width="2.0024" stroke-linecap="round" stroke-linejoin="round" stroke-miterlimit="10" d="
			M242.3,177.9h16.5c3.7,0,6.7-3,6.7-6.7v-55.2c0-3.7-3-6.7-6.7-6.7h-16.5c-3.7,0-6.7,3-6.7,6.7v55.2
			C235.6,174.9,238.6,177.9,242.3,177.9z"/>
		
			<path fill="#FFFFFF" stroke="#999999" stroke-width="2.0024" stroke-linecap="round" stroke-linejoin="round" stroke-miterlimit="10" d="
			M254.5,74.2L254.5,74.2c-2.3-1.9-5.7-1.9-8,0l0,0c-2,1.6-2.8,4.2-2.1,6.6l2.2,4.9c0.5,1,0.3,2.2-0.4,3.1l-5.3,6.3h9.6h9.6
			l-5.3-6.3c-0.7-0.9-0.9-2.1-0.4-3.1l2.2-4.9C257.3,78.4,256.5,75.8,254.5,74.2z"/>
		
			<line fill="#E6E6E6" stroke="#999999" stroke-linecap="round" stroke-linejoin="round" stroke-miterlimit="10" x1="265" y1="118.5" x2="257" y2="118.5"/>
		
			<line fill="#E6E6E6" stroke="#999999" stroke-linecap="round" stroke-linejoin="round" stroke-miterlimit="10" x1="265" y1="138.5" x2="260" y2="138.5"/>
		
			<line fill="#E6E6E6" stroke="#999999" stroke-linecap="round" stroke-linejoin="round" stroke-miterlimit="10" x1="265" y1="134.5" x2="260" y2="134.5"/>
		
			<line fill="#E6E6E6" stroke="#999999" stroke-linecap="round" stroke-linejoin="round" stroke-miterlimit="10" x1="265" y1="128.5" x2="260" y2="128.5"/>
		
			<line fill="#E6E6E6" stroke="#999999" stroke-linecap="round" stroke-linejoin="round" stroke-miterlimit="10" x1="265" y1="124.5" x2="260" y2="124.5"/>
		
			<line fill="#E6E6E6" stroke="#999999" stroke-linecap="round" stroke-linejoin="round" stroke-miterlimit="10" x1="265" y1="164.5" x2="260" y2="164.5"/>
		
			<line fill="#E6E6E6" stroke="#999999" stroke-linecap="round" stroke-linejoin="round" stroke-miterlimit="10" x1="265" y1="158.5" x2="260" y2="158.5"/>
		
			<line fill="#E6E6E6" stroke="#999999" stroke-linecap="round" stroke-linejoin="round" stroke-miterlimit="10" x1="265" y1="154.5" x2="260" y2="154.5"/>
		
			<line fill="#E6E6E6" stroke="#999999" stroke-linecap="round" stroke-linejoin="round" stroke-miterlimit="10" x1="265" y1="148.5" x2="260" y2="148.5"/>
		
			<line fill="#E6E6E6" stroke="#999999" stroke-linecap="round" stroke-linejoin="round" stroke-miterlimit="10" x1="265" y1="144.5" x2="257" y2="144.5"/>
		
			<line fill="#E6E6E6" stroke="#999999" stroke-linecap="round" stroke-linejoin="round" stroke-miterlimit="10" x1="265" y1="169.5" x2="257" y2="169.5"/>
		
			<line fill="none" stroke="#999999" stroke-linecap="round" stroke-linejoin="round" stroke-miterlimit="10" x1="250.5" y1="74" x2="250.5" y2="76"/>
		<path fill="#A7CC3F" stroke="#999999" stroke-width="2.0024" stroke-miterlimit="10" d="M238.9,109.2h23.1c1.8,0,3.3-1.5,3.3-3.3
			v-7.2c0-1.8-1.5-3.3-3.3-3.3h-23.1c-1.8,0-3.3,1.5-3.3,3.3v7.2C235.6,107.7,237.1,109.2,238.9,109.2z"/>
	</g>
</g>
<g opacity="0.4">
	<defs>
		<circle id="SVGID_11_" opacity="0.4" cx="103.2" cy="102.2" r="43.2"/>
	</defs>
	<clipPath id="SVGID_4_">
		<use xlink:href="#SVGID_11_"  overflow="visible"/>
	</clipPath>
	<g clip-path="url(#SVGID_4_)">
		<g>
			
				<rect x="85.8" y="80" fill="none" stroke="#999999" stroke-width="1.9436" stroke-linejoin="round" stroke-miterlimit="10" width="9.1" height="97.1"/>
			
				<line fill="none" stroke="#999999" stroke-linecap="round" stroke-linejoin="round" stroke-miterlimit="10" x1="89.5" y1="112" x2="89.5" y2="136"/>
			
				<line fill="none" stroke="#999999" stroke-linecap="round" stroke-linejoin="round" stroke-miterlimit="10" x1="91.5" y1="125" x2="91.5" y2="149"/>
			
				<line fill="none" stroke="#999999" stroke-linecap="round" stroke-linejoin="round" stroke-miterlimit="10" x1="89.5" y1="150" x2="89.5" y2="167"/>
			<path fill="#E6E6E6" stroke="#999999" stroke-width="1.9436" stroke-linejoin="round" stroke-miterlimit="10" d="M114.6,100.3
				h-6.5l-4.7-2.7l-4.3,2.7c0,0-20.8-1.4-30.2,2.3c-1.1,0.4-2.2-0.5-2.1-1.6c0.5-4.5,2.2-7.8,4.3-10.3c3.6-4.3,9-6.6,14.6-6.6h13.4
				l4.3,2.7l4.7-2.7h6.5v4.1v4.1v4.1V100.3z"/>
			<rect x="110.2" y="84.9" fill="#7EB4F1" width="3.4" height="14.4"/>
			
				<path fill="none" stroke="#999999" stroke-width="1.2958" stroke-linecap="round" stroke-linejoin="round" stroke-miterlimit="10" d="
				M90.2,87.8c0,0-12.4-2.2-17,7.6"/>
		</g>
		<g>
			<polygon fill="#7EB4F1" points="121.7,85 128.1,85 127,81 122.6,81 			"/>
			<polygon fill="none" stroke="#999999" stroke-width="1.9436" stroke-linejoin="round" stroke-miterlimit="10" points="127,81.1 
				125.8,81.1 124.6,81.1 123.4,81.1 122.2,81.1 120.4,91.5 122.2,96.3 122.2,112.2 122.2,122.6 123.4,122.6 124.6,122.6 
				125.8,122.6 127,122.6 127,112.2 127,96.3 128.9,91.5 			"/>
			<path fill="#E6E6E6" stroke="#999999" stroke-width="1.9436" stroke-linejoin="round" stroke-miterlimit="10" d="M133.2,171.9
				c0,2.4-1.9,4.3-4.3,4.3l0,0h-4.3h-4.3l0,0c-2.4,0-4.3-1.9-4.3-4.3v-37.2l2.6-2.4l-2.6-2.4v-4.6c0-1.4,1.2-2.6,2.6-2.6h1.7h4.3
				h4.3h1.7c1.4,0,2.6,1.2,2.6,2.6v4.6l-2.6,2.4l2.6,2.4V171.9z"/>
			
				<line fill="none" stroke="#999999" stroke-linecap="round" stroke-linejoin="round" stroke-miterlimit="10" x1="120.5" y1="138" x2="120.5" y2="171"/>
			
				<line fill="none" stroke="#999999" stroke-linecap="round" stroke-linejoin="round" stroke-miterlimit="10" x1="129.5" y1="138" x2="129.5" y2="171"/>
		</g>
	</g>
</g>
<g>
	<path d="M210.8,180.5l0-2v-0.8c0-3.4,0.2-5.8,0.5-7.1c0.4-1.6,1-2.8,1.7-3.4c1-0.9,2.2-1.3,3.7-1.3c0.4,0,0.6,0.1,0.8,0.3
		c0.2,0.2,0.3,0.4,0.3,0.6s-0.1,0.4-0.2,0.6c-0.1,0.2-0.3,0.3-0.5,0.3h-1.6c-0.5,0-0.9,0.3-1.2,0.9c-0.3,0.6-0.6,1.3-0.7,2.2
		c-0.3,1.7-0.4,3-0.4,4.1v0.2l-0.2,6.7c0,1.4,0.1,2.4,0.2,2.9c0.2,0.5,0.3,1,0.5,1.3c0.2,0.3,0.4,0.6,0.6,0.8c0.5,0.5,1.2,0.7,2,0.7
		c0.3,0,0.5-0.1,0.7-0.3c0.3,0,0.5,0.1,0.7,0.2s0.3,0.3,0.3,0.6c0,0.9-0.6,1.4-1.9,1.4c-0.5,0-1.1-0.1-1.6-0.2
		c-0.6-0.2-1-0.3-1.3-0.5C211.6,187.6,210.8,184.9,210.8,180.5z"/>
	<path d="M221.7,168.1l-0.1,8.6c0.4,0.1,1,0.2,1.9,0.2h1.2c0.1-0.1,0.1-0.5,0.1-1.1c0-0.6-0.1-2-0.2-4.2c-0.2-2.2-0.2-3.8-0.2-4.9
		c0-0.3,0.1-0.5,0.3-0.6s0.4-0.3,0.6-0.3c0.2,0,0.3,0,0.4,0.1s0.2,0.1,0.4,0.1s0.2,0.1,0.3,0.1c0,3,0.1,7.4,0.3,13.1
		c0.2,5.7,0.3,8.7,0.3,8.9c0,0.2-0.1,0.4-0.4,0.6c-0.2,0.2-0.5,0.3-0.8,0.3c-0.3,0-0.5-0.2-0.7-0.7c-0.2-0.4-0.3-1.1-0.4-1.9
		c-0.1-0.9-0.1-1.6-0.1-2.2c0-0.3,0-0.6,0-0.9c0-0.5,0-1,0-1.6c0-1.1,0-1.7,0-1.9v-0.1l0.1-1l-0.2-0.3v0c-0.2,0-0.4,0.1-0.6,0.1
		l-2.2-0.3v4l0.2,5.7c0,0.3-0.1,0.6-0.3,0.9c-0.2,0.3-0.4,0.4-0.7,0.4c-0.5,0-0.8-0.4-1-1.3s-0.3-2-0.3-3.4l0.1-5.3
		c0-1.1,0-1.7-0.1-1.8v-0.2c0.1-1.2,0.1-1.9,0.1-2l-0.2-7.8c0-0.3,0.1-0.5,0.3-0.7c0.2-0.2,0.4-0.3,0.7-0.3
		C221.4,166,221.7,166.7,221.7,168.1z"/>
	<path d="M232.9,177.4l0.2,7.3v1l0,1h0.5l1,0c0.9,0,1.4,0.3,1.4,0.9c0,0.3-0.1,0.5-0.3,0.8c-0.2,0.2-0.5,0.3-0.8,0.3h-1.5
		c-1,0-1.7,0-2-0.1c-0.2,0-0.3,0-0.4,0c-0.8,0-1.2-0.3-1.2-0.8c0-0.2,0.1-0.4,0.2-0.6c0.1-0.2,0.3-0.3,0.4-0.3h1l0.1-0.5l-0.2-7.3
		l0.2-7.7c0-1.3-0.1-2.5-0.2-3.7h-0.7l-0.8,0c-0.3,0-0.6-0.1-0.8-0.2s-0.3-0.4-0.3-0.7c0-0.5,0.6-0.8,1.7-0.8h4.1
		c0.9,0,1.4,0.2,1.4,0.7c0,0.2-0.1,0.4-0.3,0.6s-0.4,0.3-0.7,0.3H233c0.1,0.9,0.1,2,0.1,3.2L232.9,177.4z"/>
	<path d="M239.7,169.5l0.1,8.3c-0.1,0.3-0.2,0.7-0.2,1.2v0.7l-0.1,5.5c0,1.6,0.4,2.4,1.2,2.4l1.4-0.1c1.2,0,1.9,0.3,1.9,1
		c0,0.2-0.1,0.5-0.3,0.6c-0.2,0.2-0.5,0.3-0.7,0.3c-0.8-0.3-1.9-0.4-3.1-0.4c-0.4,0.2-0.7,0.3-1.1,0.3c-0.3,0-0.6-0.1-0.8-0.4
		s-0.3-0.5-0.3-0.8c0-1.7,0.1-4.3,0.2-7.7c0.1-3.4,0.2-6,0.2-7.7v-0.3c-0.1-1.4-0.2-2.5-0.2-3.2c0-2.2,0.4-3.3,1.2-3.3
		c0.2,0,0.4,0.1,0.6,0.3c0.2,0.2,0.3,0.4,0.3,0.6L239.7,169.5z"/>
	<path d="M245.6,184.5l0.1-10.9c0-0.7-0.1-1.9-0.2-3.4s-0.2-2.5-0.2-2.9s0.1-0.7,0.4-1s0.5-0.3,0.8-0.3c2.4,0,4.3,1.4,5.8,4.2
		c0.9,1.6,1.3,3.3,1.3,5l-0.1,1.7v1.9c0,2.3-0.1,3.9-0.3,4.6c-0.2,0.8-0.4,1.4-0.6,1.9c-0.2,0.5-0.5,1-0.8,1.4
		c-0.7,0.9-1.7,1.7-2.8,2.2h-2.5C245.9,189.1,245.6,187.6,245.6,184.5z M248,186.5v0.8c2,0,3.2-2,3.6-6.1c0.1-0.9,0.1-1.8,0.1-2.7
		c0-6.9-1.3-10.6-4-10.9c-0.2,0.9-0.3,2.2-0.3,3.7c0,1.6,0.1,4.1,0.3,7.5S248,184.8,248,186.5z"/>
	<path d="M255.5,180.5l0-2v-0.8c0-3.4,0.2-5.8,0.5-7.1c0.4-1.6,1-2.8,1.7-3.4c1-0.9,2.2-1.3,3.7-1.3c0.4,0,0.6,0.1,0.8,0.3
		c0.2,0.2,0.3,0.4,0.3,0.6s-0.1,0.4-0.2,0.6c-0.1,0.2-0.3,0.3-0.5,0.3H260c-0.5,0-0.9,0.3-1.2,0.9c-0.3,0.6-0.6,1.3-0.7,2.2
		c-0.3,1.7-0.4,3-0.4,4.1v0.2l-0.2,6.7c0,1.4,0.1,2.4,0.2,2.9s0.3,1,0.5,1.3c0.2,0.3,0.4,0.6,0.6,0.8c0.5,0.5,1.2,0.7,2,0.7
		c0.3,0,0.5-0.1,0.7-0.3c0.3,0,0.5,0.1,0.7,0.2c0.2,0.1,0.3,0.3,0.3,0.6c0,0.9-0.6,1.4-1.9,1.4c-0.5,0-1.1-0.1-1.6-0.2
		c-0.6-0.2-1-0.3-1.3-0.5C256.2,187.6,255.5,184.9,255.5,180.5z"/>
	<path d="M271.9,181.9l0.4,2.1c0,0.3,0.1,1,0.3,2.1c0.2,1.1,0.3,1.8,0.3,2.1v0c0,0.5-0.2,0.8-0.6,1c-0.5,0-0.9-0.1-1.1-0.2
		c-0.3-0.2-0.4-0.5-0.4-0.9c0-1-0.2-2.4-0.5-4.3l-3.4-0.5c-0.2,0.8-0.4,1.6-0.5,2.5c-0.1,0.9-0.2,1.6-0.3,2
		c-0.2,0.9-0.6,1.3-1.1,1.3c-0.3,0-0.5-0.1-0.8-0.3s-0.3-0.4-0.3-0.7l0.1-0.3c1.5-6,2.7-11.8,3.5-17.5c0-0.2,0.1-0.6,0.1-1.4
		c0.1-1.7,0.3-2.8,0.6-3.2h1.2c0.3,0,0.6,0.1,0.8,0.2c0.2,0.1,0.4,0.4,0.4,0.7c0,1.8,0.2,4.4,0.7,7.8
		C271.7,177.9,271.9,180.3,271.9,181.9z M270.1,182.5c-0.1-0.3-0.1-0.9-0.1-1.8s0-1.9-0.1-3.1c-0.1-1.2-0.2-2.7-0.4-4.3
		s-0.3-2.8-0.4-3.6c-1,5.8-1.7,9.9-2,12.2C267.4,182.2,268.5,182.4,270.1,182.5z"/>
	<path d="M276.4,177.3l0,3.7c0,3,0.2,5.4,0.7,7.2l-0.4,0.9h-1l-0.5-0.5c0-1,0-2.2,0-3.5c0-1.3-0.1-4-0.3-8.2
		c-0.2-4.2-0.3-7.4-0.3-9.4c0-1.1,0.4-1.6,1.1-1.6c1.2,0,2.2,0.3,3,0.9c0.8,0.6,1.2,1.5,1.2,2.7v2.4c0,0.7-0.1,1.3-0.4,1.8
		s-0.5,1.1-0.9,1.7c-0.3,0.6-0.5,0.9-0.5,1c0.1,0.6,0.3,1.7,0.7,3.3c0.7,3.6,1.4,6.2,2.2,7.7c0.2,0.4,0.4,0.8,0.4,1.1
		c0,0.3-0.1,0.5-0.2,0.6s-0.3,0.3-0.6,0.3c-0.5,0-0.9-0.6-1.4-1.7c-0.4-1.1-0.8-2.3-1.1-3.7c-0.8-4.1-1.3-6.4-1.5-6.8H276.4z
		 M276.6,167.1l-0.1,0.5c0,0.9,0,2.3,0.1,4.1s0.1,3.1,0.1,3.9c0.5-0.3,1-1,1.3-2.2c0.3-1.2,0.5-2.1,0.5-2.7s0-1.1,0-1.4
		c0-0.3-0.1-0.6-0.2-1C277.9,167.6,277.4,167.2,276.6,167.1z"/>
	<path d="M283.6,171.4l-0.2-2.9c0-1.6,0.5-2.4,1.4-2.4c0.6,0,1.5,0.1,2.5,0.4c1.1,0.3,1.6,0.7,1.6,1.1c0,0.5-0.3,0.8-1,1.1
		c-1.1-0.4-1.9-0.6-2.6-0.7c0,0.5,0,1,0,1.5l-0.2,5c0,0,0,0.2,0.1,0.5l1.2-0.1c1.1,0,1.7,0.3,1.7,0.9c0,0.2-0.1,0.5-0.3,0.6
		s-0.5,0.3-0.8,0.3c-0.3,0-0.6,0-1-0.1h-0.9c0.1,0.9,0.1,1.7,0.1,2.6l-0.2,6.2c0,1.3,0,1.9,0.1,1.9l2.5-0.1c0.9,0,1.3,0.3,1.3,0.8
		c0,0.3-0.2,0.6-0.5,0.8c-0.3,0.2-0.6,0.2-1,0.2h-2.9c-0.3,0-0.6-0.1-0.8-0.3s-0.4-0.5-0.4-0.8v-0.9l-0.2-5.8L283.6,171.4z"/>
</g>
<g opacity="0.4">
	<path d="M52.2,168.1l-0.1,8.6c0.4,0.1,1,0.2,1.9,0.2h1.2c0.1-0.1,0.1-0.5,0.1-1.1c0-0.6-0.1-2-0.2-4.2c-0.2-2.2-0.2-3.8-0.2-4.9
		c0-0.3,0.1-0.5,0.3-0.6s0.4-0.3,0.6-0.3c0.2,0,0.3,0,0.4,0.1s0.2,0.1,0.4,0.1s0.2,0.1,0.3,0.1c0,3,0.1,7.4,0.3,13.1
		c0.2,5.7,0.3,8.7,0.3,8.9c0,0.2-0.1,0.4-0.4,0.6c-0.2,0.2-0.5,0.3-0.8,0.3c-0.3,0-0.5-0.2-0.7-0.7c-0.2-0.4-0.3-1.1-0.4-1.9
		c-0.1-0.9-0.1-1.6-0.1-2.2c0-0.3,0-0.6,0-0.9c0-0.5,0-1,0-1.6c0-1.1,0-1.7,0-1.9v-0.1l0.1-1l-0.2-0.3v0c-0.2,0-0.4,0.1-0.6,0.1
		l-2.2-0.3v4l0.2,5.7c0,0.3-0.1,0.6-0.3,0.9c-0.2,0.3-0.4,0.4-0.7,0.4c-0.5,0-0.8-0.4-1-1.3s-0.3-2-0.3-3.4l0.1-5.3
		c0-1.1,0-1.7-0.1-1.8v-0.2c0.1-1.2,0.1-1.9,0.1-2l-0.2-7.8c0-0.3,0.1-0.5,0.3-0.7c0.2-0.2,0.4-0.3,0.7-0.3
		C51.9,166,52.2,166.7,52.2,168.1z"/>
	<path d="M59.5,178.3l0-1.3c0-0.1,0-0.2-0.1-0.2v-0.6c0-3.6,0.2-6.2,0.6-7.7c0.3-1.3,0.7-2.1,1-2.4c0.3-0.3,0.6-0.5,1-0.5
		c2.7,0,4.5,1.3,5.5,4c0.6,1.5,0.9,3.5,0.9,5.7v0.3l0.1,3.9c0,6.6-1.5,9.9-4.6,9.9c-1.3,0-2.2-0.7-2.9-2.1c-0.6-1.3-1-2.7-1.2-4
		C59.6,181.5,59.5,179.8,59.5,178.3z M61.5,173.6l-0.2,3.2c0,3.3,0.3,6.2,0.8,8.7c0.6,1.4,1.1,2.3,1.6,2.6c0.4,0,0.8-0.2,1.1-0.5
		c0.3-0.3,0.6-0.8,0.8-1.4c0.2-0.6,0.4-1.2,0.5-1.8c0.1-0.6,0.2-1.3,0.3-2c0.1-1.2,0.2-2.3,0.2-3.1s-0.1-2.2-0.2-4
		c-0.2-1.8-0.2-3.1-0.2-4v-0.6c0-0.8-0.3-1.6-0.8-2.2c-0.5-0.7-1.2-1-2-1c-0.8,0-1.3,0.4-1.6,1.3c-0.2,0.7-0.3,1.7-0.3,2.7
		L61.5,173.6z"/>
	<path d="M83.5,188.5l0-4.4c0-1-0.1-2.5-0.3-4.5s-0.3-3.3-0.3-4s0-1.5,0.1-2.5c0-0.9,0.1-1.7,0.1-2.1c-0.1,0.3-0.5,1.9-1.2,4.8
		c-1.8,7.4-3,11.2-3.8,11.2c-0.4,0-0.8-0.1-1.1-0.4c-0.3-0.3-0.4-0.6-0.4-1.1c0-1.1-0.4-3.3-1.3-6.7c-0.9-3.4-1.6-6-2.2-7.8
		c-0.4,8.1-0.7,13.6-0.7,16.4l0.1,1c0,0.4-0.1,0.7-0.2,0.9c-0.2,0.2-0.4,0.3-0.7,0.3s-0.6-0.1-0.8-0.2c-0.2-0.2-0.3-0.4-0.3-0.6
		c0-2.3,0.2-5.9,0.5-10.5c0.4-4.7,0.5-8.2,0.5-10.5c-0.1-0.2-0.2-0.5-0.2-0.7s0.1-0.5,0.4-0.6s0.6-0.2,0.9-0.2
		c0.5,0,1.5,2.3,2.9,6.9c1.5,4.6,2.4,7.8,2.7,9.6c0.1-0.3,0.3-1.2,0.6-2.6c0.3-1.4,0.7-2.8,1-4.3c0.4-1.5,0.8-3,1.2-4.5
		c1-3.5,1.8-5.2,2.5-5.2c0.3,0,0.6,0.1,0.9,0.3c0.3,0.2,0.4,0.4,0.4,0.7c0,1.7,0.1,4.1,0.2,7.4c0.1,3.3,0.2,5.7,0.2,7.2l-0.1,3.6v0
		c0,0.3,0.1,1.1,0.2,2.5l0.1,0.7c0.1,0.2,0.2,0.5,0.2,0.8s-0.1,0.6-0.3,0.9s-0.5,0.5-0.8,0.5C83.8,190.7,83.5,189.9,83.5,188.5z"/>
	<path d="M88.1,171.4l-0.2-2.9c0-1.6,0.5-2.4,1.4-2.4c0.6,0,1.5,0.1,2.5,0.4c1.1,0.3,1.6,0.7,1.6,1.1c0,0.5-0.3,0.8-1,1.1
		c-1.1-0.4-1.9-0.6-2.6-0.7c0,0.5,0.1,1,0.1,1.5l-0.2,5c0,0,0,0.2,0.1,0.5l1.2-0.1c1.1,0,1.7,0.3,1.7,0.9c0,0.2-0.1,0.5-0.3,0.6
		s-0.5,0.3-0.8,0.3c-0.3,0-0.6,0-1-0.1h-0.9c0.1,0.9,0.1,1.7,0.1,2.6l-0.2,6.2c0,1.3,0,1.9,0.1,1.9l2.5-0.1c0.9,0,1.3,0.3,1.3,0.8
		c0,0.3-0.2,0.6-0.5,0.8c-0.3,0.2-0.6,0.2-1,0.2h-2.9c-0.3,0-0.6-0.1-0.8-0.3s-0.4-0.5-0.4-0.8v-0.9l-0.2-5.8L88.1,171.4z"/>
	<path d="M99.5,187.4l1.4,0.3c0.4,0,0.8-0.2,1.1-0.6c0.3-0.4,0.6-0.9,0.7-1.4c0.3-1.1,0.5-2.1,0.5-2.9c0-0.8-0.1-1.7-0.4-2.5
		c-0.3-0.8-0.6-1.6-1-2.3c-0.4-0.7-0.8-1.4-1.2-2.2c-1-1.8-1.4-3.5-1.4-5.2c0-1,0.2-1.9,0.5-2.7c0.7-1.5,1.5-2.2,2.6-2.2
		c0.4,0,0.8,0.1,1.2,0.4c0.4,0.3,0.5,0.5,0.5,0.8c0,0.5-0.3,0.8-0.8,0.8c-0.2,0-0.5-0.1-0.7-0.2c-0.7,0-1.2,0.8-1.5,2.4
		c-0.1,0.3-0.1,0.8-0.1,1.2c0,0.5,0.1,1,0.3,1.7s0.5,1.3,0.8,1.8c0.3,0.5,0.6,1.1,1,1.8c0.4,0.6,0.7,1.3,1,1.9
		c0.7,1.4,1.1,3,1.1,4.8c0,1.4-0.3,2.7-1,4c-0.3,0.6-0.8,1.1-1.3,1.5s-1.2,0.6-2,0.6v0.1c-0.9-0.1-1.5-0.6-1.5-1.3L99.5,187.4z"/>
	<path d="M107.2,171.4l-0.2-2.9c0-1.6,0.5-2.4,1.4-2.4c0.6,0,1.5,0.1,2.5,0.4c1.1,0.3,1.6,0.7,1.6,1.1c0,0.5-0.3,0.8-1,1.1
		c-1.1-0.4-1.9-0.6-2.6-0.7c0,0.5,0,1,0,1.5l-0.2,5c0,0,0,0.2,0.1,0.5l1.2-0.1c1.1,0,1.7,0.3,1.7,0.9c0,0.2-0.1,0.5-0.3,0.6
		s-0.5,0.3-0.8,0.3c-0.3,0-0.6,0-1-0.1h-0.9c0.1,0.9,0.1,1.7,0.1,2.6l-0.2,6.2c0,1.3,0,1.9,0.1,1.9l2.5-0.1c0.9,0,1.3,0.3,1.3,0.8
		c0,0.3-0.2,0.6-0.5,0.8c-0.3,0.2-0.6,0.2-1,0.2h-2.9c-0.3,0-0.6-0.1-0.8-0.3s-0.4-0.5-0.4-0.8v-0.9l-0.2-5.8L107.2,171.4z"/>
	<path d="M116.2,177.3l0,3.7c0,3,0.2,5.4,0.7,7.2l-0.4,0.9h-1l-0.5-0.5c0-1,0-2.2,0-3.5c0-1.3-0.1-4-0.3-8.2
		c-0.2-4.2-0.3-7.4-0.3-9.4c0-1.1,0.4-1.6,1.1-1.6c1.2,0,2.2,0.3,3,0.9c0.8,0.6,1.2,1.5,1.2,2.7v2.4c0,0.7-0.1,1.3-0.4,1.8
		s-0.5,1.1-0.9,1.7c-0.3,0.6-0.5,0.9-0.5,1c0.1,0.6,0.3,1.7,0.7,3.3c0.7,3.6,1.4,6.2,2.2,7.7c0.2,0.4,0.4,0.8,0.4,1.1
		c0,0.3-0.1,0.5-0.2,0.6s-0.3,0.3-0.6,0.3c-0.5,0-0.9-0.6-1.4-1.7c-0.4-1.1-0.8-2.3-1.1-3.7c-0.8-4.1-1.3-6.4-1.5-6.8H116.2z
		 M116.3,167.1l-0.1,0.5c0,0.9,0,2.3,0.1,4.1s0.1,3.1,0.1,3.9c0.5-0.3,1-1,1.3-2.2c0.3-1.2,0.5-2.1,0.5-2.7s0-1.1,0-1.4
		c0-0.3-0.1-0.6-0.2-1C117.7,167.6,117.1,167.2,116.3,167.1z"/>
	<path d="M127,184.7c0.5-2.5,1.1-6.2,1.9-11c0.7-4.8,1.2-7.6,1.3-8.4h0.8c0.2,0,0.4,0.1,0.5,0.2c0.2,0.1,0.2,0.3,0.2,0.5
		c0,1.3-0.3,2.9-0.8,4.9c-0.6,2-0.9,3.2-1,3.8c-0.1,0.6-0.2,1.5-0.3,2.8s-0.2,2.5-0.4,3.7s-0.3,2.5-0.5,3.7c-0.2,1.3-0.5,2.3-1,3.1
		s-0.9,1.2-1.5,1.2l-0.6-0.5c0-2.8-0.3-5.6-0.8-8.6s-1.1-5.4-1.6-7.3c-0.5-2-0.9-3.2-1-3.8c-0.4-1.2-0.6-2-0.6-2.3
		c0-0.3,0.1-0.5,0.3-0.7c0.2-0.2,0.4-0.2,0.6-0.2c0.6,0,1.3,1.1,1.8,3.3c0.6,2.2,1,4.3,1.3,6.2s0.5,3.4,0.7,4.4c0.1,1,0.3,2,0.4,3.1
		C126.9,183.9,127,184.5,127,184.7z"/>
	<path d="M137.3,177.4l0.2,7.3v1l0,1h0.5l1,0c0.9,0,1.4,0.3,1.4,0.9c0,0.3-0.1,0.5-0.3,0.8c-0.2,0.2-0.5,0.3-0.8,0.3h-1.5
		c-1,0-1.7,0-2-0.1c-0.2,0-0.3,0-0.4,0c-0.8,0-1.2-0.3-1.2-0.8c0-0.2,0.1-0.4,0.2-0.6c0.1-0.2,0.3-0.3,0.4-0.3h1l0.1-0.5l-0.2-7.3
		l0.2-7.7c0-1.3-0.1-2.5-0.2-3.7h-0.7l-0.8,0c-0.3,0-0.6-0.1-0.8-0.2c-0.2-0.1-0.3-0.4-0.3-0.7c0-0.5,0.6-0.8,1.7-0.8h4.1
		c0.9,0,1.4,0.2,1.4,0.7c0,0.2-0.1,0.4-0.3,0.6s-0.4,0.3-0.7,0.3h-1.8c0.1,0.9,0.1,2,0.1,3.2L137.3,177.4z"/>
	<path d="M141.7,180.5l0-2v-0.8c0-3.4,0.2-5.8,0.5-7.1c0.4-1.6,1-2.8,1.7-3.4c1-0.9,2.2-1.3,3.7-1.3c0.4,0,0.6,0.1,0.8,0.3
		c0.2,0.2,0.3,0.4,0.3,0.6s-0.1,0.4-0.2,0.6c-0.1,0.2-0.3,0.3-0.5,0.3h-1.6c-0.5,0-0.9,0.3-1.2,0.9c-0.3,0.6-0.6,1.3-0.7,2.2
		c-0.3,1.7-0.4,3-0.4,4.1v0.2l-0.2,6.7c0,1.4,0.1,2.4,0.2,2.9s0.3,1,0.5,1.3c0.2,0.3,0.4,0.6,0.6,0.8c0.5,0.5,1.2,0.7,2,0.7
		c0.3,0,0.5-0.1,0.7-0.3c0.3,0,0.5,0.1,0.7,0.2c0.2,0.1,0.3,0.3,0.3,0.6c0,0.9-0.6,1.4-1.9,1.4c-0.5,0-1.1-0.1-1.6-0.2
		c-0.6-0.2-1-0.3-1.3-0.5C142.4,187.6,141.7,184.9,141.7,180.5z"/>
	<path d="M150.8,171.4l-0.2-2.9c0-1.6,0.5-2.4,1.4-2.4c0.6,0,1.5,0.1,2.5,0.4c1.1,0.3,1.6,0.7,1.6,1.1c0,0.5-0.3,0.8-1,1.1
		c-1.1-0.4-1.9-0.6-2.6-0.7c0,0.5,0,1,0,1.5l-0.2,5c0,0,0,0.2,0.1,0.5l1.2-0.1c1.1,0,1.7,0.3,1.7,0.9c0,0.2-0.1,0.5-0.3,0.6
		s-0.5,0.3-0.8,0.3c-0.3,0-0.6,0-1-0.1h-0.9c0.1,0.9,0.1,1.7,0.1,2.6l-0.2,6.2c0,1.3,0,1.9,0.1,1.9l2.5-0.1c0.9,0,1.3,0.3,1.3,0.8
		c0,0.3-0.2,0.6-0.5,0.8c-0.3,0.2-0.6,0.2-1,0.2H152c-0.3,0-0.6-0.1-0.8-0.3s-0.4-0.5-0.4-0.8v-0.9l-0.2-5.8L150.8,171.4z"/>
	<path d="M158.3,187.4l1.4,0.3c0.4,0,0.8-0.2,1.1-0.6c0.3-0.4,0.6-0.9,0.7-1.4c0.3-1.1,0.5-2.1,0.5-2.9c0-0.8-0.1-1.7-0.4-2.5
		c-0.3-0.8-0.6-1.6-1-2.3c-0.4-0.7-0.8-1.4-1.2-2.2c-1-1.8-1.4-3.5-1.4-5.2c0-1,0.2-1.9,0.5-2.7c0.7-1.5,1.5-2.2,2.6-2.2
		c0.4,0,0.8,0.1,1.2,0.4c0.4,0.3,0.5,0.5,0.5,0.8c0,0.5-0.3,0.8-0.8,0.8c-0.2,0-0.5-0.1-0.7-0.2c-0.7,0-1.2,0.8-1.5,2.4
		c-0.1,0.3-0.1,0.8-0.1,1.2c0,0.5,0.1,1,0.3,1.7s0.5,1.3,0.8,1.8c0.3,0.5,0.6,1.1,1,1.8c0.4,0.6,0.7,1.3,1,1.9
		c0.7,1.4,1.1,3,1.1,4.8c0,1.4-0.3,2.7-1,4c-0.3,0.6-0.8,1.1-1.3,1.5s-1.2,0.6-2,0.6v0.1c-0.9-0.1-1.5-0.6-1.5-1.3L158.3,187.4z"/>
</g>
<g opacity="0.4">
	<path d="M372.7,182.6l-1.3,0.1c-0.8,0-1.2-0.3-1.2-1c0-0.6,0.7-0.9,2.2-1.1c0.3,0,0.6-0.1,1-0.1c0.3,0,0.6,0.2,0.9,0.5
		s0.4,0.8,0.4,1.4c0,0.6,0.1,1.6,0.3,2.9c0.2,1.4,0.3,2.3,0.3,2.7c0,0.8-0.3,1.3-0.9,1.3c-0.6,0-0.9-0.2-1.1-0.7v0
		c-0.1,0.1-0.4,0.2-0.8,0.4c-0.7,0.4-1.4,0.6-2.1,0.6c-0.5,0-1-0.1-1.5-0.3c-1.1-0.4-1.9-1.1-2.4-2.1c-0.6-1-1-2-1.2-3
		c-0.2-1-0.3-1.7-0.4-2.3c-0.1-0.6-0.1-1.2-0.2-1.9c-0.1-0.9-0.1-2-0.1-3.3l0-2.5c0-2.2,0.1-3.8,0.2-4.8c0.1-1,0.3-1.8,0.4-2.4
		c0.2-0.6,0.3-1.2,0.5-1.6c0.2-0.5,0.4-0.9,0.7-1.4c0.3-0.5,0.6-0.8,1-1.1c0.8-0.7,1.8-1,2.8-1s1.6,0.3,1.6,1c0,0.2-0.1,0.4-0.3,0.6
		c-0.2,0.1-0.4,0.2-0.6,0.2l-1-0.2c-0.9,0-1.5,0.5-2,1.6c-0.5,1.1-0.9,2.2-1,3.2c-0.1,1-0.3,1.8-0.3,2.5c-0.1,0.6-0.1,1.3-0.2,2.1
		c0,1.1-0.1,2.2-0.1,3.3l0,2.1c0,2.2,0.1,3.8,0.3,4.7c0.2,0.9,0.4,1.7,0.6,2.2c0.2,0.6,0.4,1,0.7,1.4c1,0.7,1.8,1.1,2.5,1.2
		c1,0,1.9-0.5,2.5-1.4C373.2,184.5,373,183.2,372.7,182.6z"/>
	<path d="M378.9,177.3l0,3.7c0,3,0.2,5.4,0.7,7.2l-0.4,0.9h-1l-0.5-0.5c0-1,0-2.2,0-3.5c0-1.3-0.1-4-0.3-8.2
		c-0.2-4.2-0.3-7.4-0.3-9.4c0-1.1,0.4-1.6,1.1-1.6c1.2,0,2.2,0.3,3,0.9c0.8,0.6,1.2,1.5,1.2,2.7v2.4c0,0.7-0.1,1.3-0.4,1.8
		s-0.5,1.1-0.9,1.7c-0.3,0.6-0.5,0.9-0.5,1c0.1,0.6,0.3,1.7,0.7,3.3c0.7,3.6,1.4,6.2,2.2,7.7c0.2,0.4,0.4,0.8,0.4,1.1
		c0,0.3-0.1,0.5-0.2,0.6s-0.3,0.3-0.6,0.3c-0.5,0-0.9-0.6-1.4-1.7s-0.8-2.3-1.1-3.7c-0.8-4.1-1.3-6.4-1.5-6.8H378.9z M379,167.1
		l-0.1,0.5c0,0.9,0,2.3,0.1,4.1c0,1.8,0.1,3.1,0.1,3.9c0.5-0.3,1-1,1.3-2.2c0.3-1.2,0.5-2.1,0.5-2.7s0-1.1,0-1.4
		c0-0.3-0.1-0.6-0.2-1C380.4,167.6,379.8,167.2,379,167.1z"/>
	<path d="M385.3,178.3l0-1.3c0-0.1,0-0.2-0.1-0.2v-0.6c0-3.6,0.2-6.2,0.6-7.7c0.3-1.3,0.7-2.1,1-2.4c0.3-0.3,0.6-0.5,1-0.5
		c2.7,0,4.5,1.3,5.5,4c0.6,1.5,0.9,3.5,0.9,5.7v0.3l0.1,3.9c0,6.6-1.5,9.9-4.6,9.9c-1.3,0-2.2-0.7-2.9-2.1c-0.6-1.3-1-2.7-1.2-4
		C385.4,181.5,385.3,179.8,385.3,178.3z M387.3,173.6l-0.2,3.2c0,3.3,0.3,6.2,0.8,8.7c0.6,1.4,1.1,2.3,1.6,2.6
		c0.4,0,0.8-0.2,1.1-0.5c0.3-0.3,0.6-0.8,0.8-1.4c0.2-0.6,0.4-1.2,0.5-1.8c0.1-0.6,0.2-1.3,0.3-2c0.1-1.2,0.2-2.3,0.2-3.1
		s-0.1-2.2-0.2-4c-0.2-1.8-0.2-3.1-0.2-4v-0.6c0-0.8-0.3-1.6-0.8-2.2c-0.5-0.7-1.2-1-2-1c-0.8,0-1.3,0.4-1.6,1.3
		c-0.2,0.7-0.3,1.7-0.3,2.7L387.3,173.6z"/>
	<path d="M396.2,180.5l0-2v-0.8c0-3.4,0.2-5.8,0.5-7.1c0.4-1.6,1-2.8,1.7-3.4c1-0.9,2.2-1.3,3.7-1.3c0.4,0,0.6,0.1,0.8,0.3
		c0.2,0.2,0.3,0.4,0.3,0.6s-0.1,0.4-0.2,0.6c-0.1,0.2-0.3,0.3-0.5,0.3h-1.6c-0.5,0-0.9,0.3-1.2,0.9c-0.3,0.6-0.6,1.3-0.7,2.2
		c-0.3,1.7-0.4,3-0.4,4.1v0.2l-0.2,6.7c0,1.4,0.1,2.4,0.2,2.9c0.2,0.5,0.3,1,0.5,1.3c0.2,0.3,0.4,0.6,0.6,0.8c0.5,0.5,1.2,0.7,2,0.7
		c0.3,0,0.5-0.1,0.7-0.3c0.3,0,0.5,0.1,0.7,0.2c0.2,0.1,0.3,0.3,0.3,0.6c0,0.9-0.6,1.4-1.9,1.4c-0.5,0-1.1-0.1-1.6-0.2
		c-0.6-0.2-1-0.3-1.3-0.5C396.9,187.6,396.2,184.9,396.2,180.5z"/>
	<path d="M405.3,171.4l-0.2-2.9c0-1.6,0.5-2.4,1.4-2.4c0.6,0,1.5,0.1,2.5,0.4c1.1,0.3,1.6,0.7,1.6,1.1c0,0.5-0.3,0.8-1,1.1
		c-1.1-0.4-1.9-0.6-2.6-0.7c0,0.5,0,1,0,1.5l-0.2,5c0,0,0,0.2,0.1,0.5l1.2-0.1c1.1,0,1.7,0.3,1.7,0.9c0,0.2-0.1,0.5-0.3,0.6
		s-0.5,0.3-0.8,0.3c-0.3,0-0.6,0-1-0.1h-0.9c0.1,0.9,0.1,1.7,0.1,2.6l-0.2,6.2c0,1.3,0,1.9,0.1,1.9l2.5-0.1c0.9,0,1.3,0.3,1.3,0.8
		c0,0.3-0.2,0.6-0.5,0.8c-0.3,0.2-0.6,0.2-1,0.2h-2.9c-0.3,0-0.6-0.1-0.8-0.3s-0.4-0.5-0.4-0.8v-0.9l-0.2-5.8L405.3,171.4z"/>
	<path d="M414.4,177.3l0,3.7c0,3,0.2,5.4,0.7,7.2l-0.4,0.9h-1l-0.5-0.5c0-1,0-2.2,0-3.5c0-1.3-0.1-4-0.3-8.2
		c-0.2-4.2-0.3-7.4-0.3-9.4c0-1.1,0.4-1.6,1.1-1.6c1.2,0,2.2,0.3,3,0.9c0.8,0.6,1.2,1.5,1.2,2.7v2.4c0,0.7-0.1,1.3-0.4,1.8
		s-0.5,1.1-0.9,1.7c-0.3,0.6-0.5,0.9-0.5,1c0.1,0.6,0.3,1.7,0.7,3.3c0.7,3.6,1.4,6.2,2.2,7.7c0.2,0.4,0.4,0.8,0.4,1.1
		c0,0.3-0.1,0.5-0.2,0.6s-0.3,0.3-0.6,0.3c-0.5,0-0.9-0.6-1.4-1.7c-0.4-1.1-0.8-2.3-1.1-3.7c-0.8-4.1-1.3-6.4-1.5-6.8H414.4z
		 M414.5,167.1l-0.1,0.5c0,0.9,0,2.3,0.1,4.1s0.1,3.1,0.1,3.9c0.5-0.3,1-1,1.3-2.2c0.3-1.2,0.5-2.1,0.5-2.7s0-1.1,0-1.4
		c0-0.3-0.1-0.6-0.2-1C415.8,167.6,415.3,167.2,414.5,167.1z"/>
	<path d="M425.5,187c0,1.5-0.4,2.3-1.1,2.3c-0.4,0-0.7-0.3-1-0.8c0.3-0.5,0.4-2.5,0.4-5.8c0-0.6-0.1-1.5-0.2-2.6
		c-0.1-1.1-0.2-1.9-0.2-2.4v-0.9c0-0.1-0.4-1-1.1-2.7c-1.5-3.9-2.3-6.1-2.3-6.9V167l0.8-0.6c0.7,0,1.5,1.8,2.5,5.3
		c0.4,1.5,0.6,2.3,0.6,2.3c0.1-0.3,0.3-1.1,0.5-2.6c0.7-3.7,1.4-5.6,2.2-5.6c0.2,0,0.4,0.1,0.6,0.2s0.3,0.3,0.3,0.5
		c0,1.1-0.3,2.8-1,5c-0.7,2.2-1,3.8-1,5V187z"/>
</g>
<path fill="#FC7171" d="M22.2,142.4L9.1,126.9c-0.9-1.1-0.9-2.8,0-3.9l13.1-15.5c1.8-2.1,5.3-0.9,5.3,1.9v30.9
	C27.5,143.3,24,144.5,22.2,142.4z"/>
<path fill="#FC7171" d="M476.7,107.6l13.1,15.5c0.9,1.1,0.9,2.8,0,3.9l-13.1,15.5c-1.8,2.1-5.3,0.9-5.3-1.9v-30.9
	C471.4,106.7,474.9,105.5,476.7,107.6z"/>
</svg>
