<?xml version="1.0" encoding="utf-8"?>
<!-- Generator: Adobe Illustrator 18.1.1, SVG Export Plug-In . SVG Version: 6.00 Build 0)  -->
<svg version="1.1" id="Layer_1" xmlns="http://www.w3.org/2000/svg" xmlns:xlink="http://www.w3.org/1999/xlink" x="0px" y="0px"
	 viewBox="0 0 500 250" enable-background="new 0 0 500 250" xml:space="preserve">
<polyline fill="none" stroke="#7EB4F1" stroke-width="29" stroke-linejoin="round" stroke-miterlimit="10" points="348.5,130 
	348.5,215.5 464.5,215.5 464.5,250 "/>
<polyline fill="none" stroke="#F5B620" stroke-width="29" stroke-linejoin="round" stroke-miterlimit="10" points="75.5,148 
	75.5,188.5 128.5,188.5 128.5,250 "/>
<polyline fill="none" stroke="#FC7171" stroke-width="29" stroke-linejoin="round" stroke-miterlimit="10" points="434.5,93 
	434.5,169.5 279.5,169.5 279.5,250 "/>
<polyline fill="none" stroke="#A7CC3F" stroke-width="29" stroke-linejoin="round" stroke-miterlimit="10" points="154.5,103 
	154.5,163.5 221.5,163.5 221.5,249 "/>
<path fill="#A7CC3F" d="M174.5,67c1.2-1.4,2.3-2.8,3.6-4c2.5-2.5,5.6-3.5,9.1-3c2.4,0.3,3.6,1.8,3.1,4.1c-0.4,2-1.1,3.9-2.1,5.7
	c-4.6,8.1-7.8,16.8-10.6,25.6c-3.6,11.3-7.3,14.3-19.2,14.9c-3.9,0.2-7.8,0-11.7-0.5c-5-0.6-8.7-3.3-9.8-8.3
	c-1.5-6.7-2.6-13.4-3.5-20.2c-0.5-4-0.5-8.1,0-12.1c0.6-4.6,3.5-6.7,8-6.8c2.4-5.4,5.3-6.7,9.4-4.4c2.9-4.7,6.1-5.9,10.7-3.7
	c0-0.9,0-1.7,0-2.5c-0.1-5.7-0.3-11.5-0.2-17.2c0.1-4.5,2.7-7.1,6.6-7.1c3,0,5.3,1.6,6,4.5c0.4,1.9,0.4,3.9,0.4,5.8
	C174.5,47.4,174.5,57.1,174.5,67z"/>
<path fill="#F5B621" d="M51.2,117.9c-0.4-0.8-0.4-1.2-0.7-1.5c-4-5-8.1-9.9-12-15c-2-2.6-3.7-5.5-4.9-8.5c-0.9-2,0.4-4,2.1-5.3
	c1.7-1.2,3.6-1.1,5.2,0.1c1.7,1.3,3.4,2.7,4.8,4.4c3.7,4.3,7.3,8.8,11.3,13c-1.9-4.3-3.7-8.6-5.6-13c-1.4-3.2-2.9-6.3-4.2-9.5
	c-1.4-3.5-0.1-6.7,3.1-7.8c2.9-1,5.2-0.3,6.6,2.8c2.6,5.5,5.1,11.2,7.6,16.8c1.2,2.7,2.3,5.5,3.5,8.2c0.2,0,0.4-0.1,0.6-0.1
	c-0.2-2.1-0.3-4.2-0.6-6.3c-0.7-5.7-1.6-11.4-2.3-17.1c-0.2-1.3,0-2.6,0.3-3.8c0.6-2.2,2.2-3.3,4.4-3.7c2-0.4,3.7,0.6,4.5,2.2
	c1.1,2.1,2,4.5,2.4,6.8c1.2,7.1,1.9,14.3,3.1,21.4c0.4,2.6,1.4,5.1,2.3,7.6c0.5,1.3,1.4,2.5,2.4,3.6c2,2.3,3.3,2.1,5-0.4
	c2.3-3.5,4.5-7.1,6.9-10.6c1.1-1.6,2.4-3.1,3.9-4.3c2.5-2.1,5.1-2,7.5-0.1c1.7,1.5,2.3,3.9,0.6,6.4c-4,6-5.9,13-9.4,19.1
	c-5.9,10.2-7.4,21.3-9.3,32.4c-1.4,8.1-2.8,9.5-11,8.4c-3.4-0.4-6.8-0.5-10.2-0.9c-6.1-0.7-8.2-3.2-7.3-9.2c0.6-4.1-0.1-7.5-3-10.7
	c-2.7-3.1-4.8-6.7-7.6-9.8c-1.7-1.9-3.9-3.6-6.3-4.7c-5.3-2.5-10.8-4.4-16.1-6.9c-1.7-0.8-3.4-2.3-4.3-3.9c-1.2-2-0.3-4.3,1.3-6
	c1.7-1.8,3.9-1.8,6.1-1c5.9,2.1,11.7,4.3,17.5,6.4C49.9,117.6,50.4,117.7,51.2,117.9z"/>
<path fill="#FC7171" d="M416.4,49c1.9-6.3,5.3-7.5,10.6-4c1.8-7.3,6.6-7.1,10.6-4c0-3.4,0-6.6,0-9.8c0-1.6,0.1-3.3,0.4-4.9
	c0.5-3,2.4-4.6,5.2-4.7c3-0.1,5,1.2,5.8,4.3c0.5,1.9,0.7,3.9,0.6,5.8c0,11.4-0.2,22.9-0.2,34.3c0,2.1-0.2,4.4,1.4,6.3
	c1.6-0.6,1.8-1.9,1.8-3.3c0-2.6-0.2-5.3,0-7.9c0.1-2.3,1.2-4.2,3.5-5.1c2.2-0.9,4.5-0.7,6.1,1c1.1,1.2,2,3,2,4.5
	c0,6.3,0,12.7-0.9,18.9c-1.3,8.7-5.9,15.7-13.2,20.7c-12.7,8.6-29.4,5.1-38.1-7.9c-3.4-5.1-5.7-10.7-5.9-16.8
	c-0.3-7.4-0.3-14.8-0.1-22.1C406.1,47.5,410.4,45.3,416.4,49z"/>
<path fill="#7EB4F1" d="M344.2,93.8c0-6.3,0-12.6,0-18.9c0-3-0.1-6,0-9c0.1-4.3,2.8-6.3,6.9-5.4c2.4,0.5,3.5,1.8,3.5,4.2
	c0,9.9,0,19.7,0.4,29.7c0.2-0.9,0.4-1.8,0.6-2.8c1.2-6.4,2.4-12.7,3.6-19.1c0.3-1.5,0.7-3,1.3-4.3c1.1-2.3,3.2-3.2,5.9-2.7
	c2,0.4,3.5,1.9,3.4,4.4c-0.1,3.1-0.5,6.3-1,9.4c-0.9,5.5-2,10.9-2.6,16.5c0.9-2.7,1.8-5.4,2.8-8.1c0.6-1.7,1.3-3.4,2.3-4.9
	c1.5-2.3,4-3,6.3-2.1c1.9,0.7,3.1,2.5,2.6,5.2c-1,4.5-2.2,9.1-3.8,13.4c-2.1,5.8-3.7,11.4-3.3,17.8c0.6,11.9-7.8,21.5-19.8,23.4
	c-10,1.5-17.8-1.8-23.2-10.4c-1.3-2-2.5-4.1-3.4-6.4c-2.9-7.4-5.8-14.9-8.5-22.4c-1.7-4.6,0.8-8,5.3-7.7c2.4,0.1,3.6,1.7,4.6,3.6
	c1.7,3.5,3.2,7,4.8,10.5c0.2,0.5,0.5,1,1.1,1.4c-0.9-6.9-1.8-13.8-2.8-20.7c-0.7-5-1.6-10-2.2-15c-0.2-1.5-0.1-3.2,0.2-4.7
	c0.5-2.3,2.3-3.3,4.4-3.6c2-0.3,3.5,0.8,4.2,2.4c1,2.3,1.7,4.6,2.2,7.1c1.4,6.4,2.5,12.8,3.8,19.2C343.9,93.8,344.1,93.8,344.2,93.8
	z"/>
<g>
	<g>
		<path d="M29.3,41.9l0-3.1c0-1.3-0.1-2.3-0.3-3c0.1-0.8,0.4-1.1,0.9-1.1h1.4c1.3,0,2.1,0.5,2.6,1.6c0.4,0.9,0.7,2,0.7,3.2
			c0,1.5,0,2.5-0.1,2.8c-0.1,0.3-0.2,0.7-0.2,1c-0.1,0.3-0.2,0.6-0.3,0.7c-0.1,0.2-0.3,0.4-0.5,0.6c-0.2,0.2-0.4,0.4-0.7,0.6
			c-0.5,0.4-1.2,0.6-2,0.9v3.5l0.3,6.2c0,0.3-0.1,0.5-0.3,0.7c-0.2,0.2-0.5,0.3-0.8,0.3l-0.7-0.4c-0.3-1.2-0.4-2.8-0.4-4.8l0.1-5.8
			c-0.1-0.3-0.2-0.6-0.2-0.8v-0.1C29.2,44.3,29.3,43.3,29.3,41.9z M31,38.2l0.1,6.4v0c1.3-0.2,1.9-2,1.9-5.5c0-1-0.1-1.7-0.4-2.1
			c-0.3-0.4-0.7-0.6-1.3-0.6c0,0-0.1,0-0.4,0V38.2z"/>
		<path d="M37.1,39.5l-0.2-2.8c0-1.5,0.5-2.3,1.4-2.3c0.6,0,1.4,0.1,2.4,0.4c1,0.3,1.5,0.6,1.5,1c0,0.4-0.3,0.8-1,1
			c-1-0.3-1.8-0.5-2.5-0.6c0,0.5,0,0.9,0,1.4l-0.1,4.7c0,0,0,0.2,0.1,0.5l1.2,0c1.1,0,1.6,0.3,1.6,0.9c0,0.2-0.1,0.4-0.3,0.6
			c-0.2,0.2-0.4,0.3-0.7,0.3c-0.3,0-0.6,0-0.9-0.1h-0.8c0.1,0.8,0.1,1.7,0.1,2.5l-0.1,5.9c0,1.2,0,1.8,0.1,1.8l2.4-0.1
			c0.8,0,1.2,0.3,1.2,0.8c0,0.3-0.1,0.6-0.4,0.7c-0.3,0.1-0.6,0.2-1,0.2h-2.8c-0.3,0-0.5-0.1-0.8-0.3c-0.2-0.2-0.4-0.4-0.4-0.7v-0.9
			l-0.2-5.5L37.1,39.5z"/>
		<path d="M47,55.5L47,53c0,0,0-0.4,0-1.1c-0.1-0.3-0.3-2.7-0.5-7.4c-0.3-4.6-0.4-7.5-0.4-8.5c0,0-0.1,0-0.1,0c-1.8,0-2.6-0.4-2.6-1
			c0-0.2,0.1-0.4,0.4-0.5c0.2-0.1,0.5-0.2,0.7-0.2l4.4,0.3l0.5,0c0.7,0,1,0.3,1,0.8c0,0.3-0.1,0.5-0.3,0.6c-0.2,0.2-0.5,0.2-0.7,0.2
			l-1.5-0.2l-0.1,0.3c0,2.1,0.2,5.1,0.5,9.3c0.4,4.1,0.5,7.2,0.5,9.3c0,0.3-0.1,0.5-0.4,0.7c-0.2,0.2-0.5,0.3-0.8,0.3L47,55.5z"/>
		<path d="M55.3,46l0-1.2c0-0.1,0-0.2,0-0.2V44c0-3.4,0.2-5.9,0.6-7.3c0.3-1.2,0.6-2,1-2.3c0.3-0.3,0.6-0.4,0.9-0.4
			c2.5,0,4.3,1.3,5.2,3.8c0.6,1.5,0.8,3.3,0.8,5.4v0.2l0.1,3.7c0,6.3-1.5,9.4-4.4,9.4c-1.2,0-2.1-0.7-2.8-2c-0.6-1.3-1-2.5-1.1-3.8
			C55.4,49,55.3,47.4,55.3,46z M57.3,41.6l-0.2,3c0,3.2,0.3,5.9,0.8,8.3c0.5,1.4,1.1,2.2,1.5,2.4c0.4,0,0.7-0.2,1.1-0.5
			c0.3-0.3,0.6-0.7,0.8-1.3c0.2-0.5,0.3-1.1,0.5-1.7c0.1-0.6,0.2-1.2,0.3-1.9c0.1-1.2,0.2-2.1,0.2-3s-0.1-2.1-0.2-3.8
			c-0.1-1.7-0.2-2.9-0.2-3.8v-0.6c0-0.8-0.3-1.5-0.8-2.1c-0.5-0.6-1.1-0.9-1.9-0.9c-0.7,0-1.2,0.4-1.5,1.3c-0.2,0.7-0.3,1.6-0.3,2.6
			L57.3,41.6z"/>
		<path d="M74.5,34.9c0-0.5,0.3-0.8,0.9-0.8s0.9,0.3,0.9,0.8c0,0.7,0,1.1-0.1,1.3v0.2c-0.3,0.9-0.4,1.9-0.4,3v2.4
			c0,1.4-0.2,3.4-0.5,6.1c-0.3,2.7-0.5,4.7-0.5,5.9c0,2.2-0.4,3.3-1.3,3.3c-0.6,0-0.9-0.5-0.9-1.4s0-1.9-0.1-2.8s-0.2-2-0.3-3.1
			c-0.1-1.1-0.3-2.1-0.4-2.8c-0.1-0.7-0.3-1.8-0.5-3.2c-0.2-1.4-0.4-2.3-0.4-2.8c-0.1,0.7-0.1,1.5-0.1,2.2s-0.1,2.1-0.2,4.2
			c-0.2,2-0.5,4.1-0.9,6.2c-0.4,2.1-0.9,3.2-1.4,3.2c-0.8,0-1.5-2.3-1.9-6.8c-0.2-2-0.4-3.9-0.5-5.9c-0.4-5.1-0.7-7.9-1-8.6
			c0.2-0.4,0.5-0.6,0.9-0.6c0.7,0,1.1,0.8,1.1,2.4c0,1.6,0.2,4,0.7,7.2c0.5,3.2,0.7,5.6,0.8,7.1c0.9-6.3,1.4-11.1,1.4-14.4l0.9-0.4
			c0.3,0,0.5,0.1,0.7,0.2c0.2,0.1,0.3,0.3,0.3,0.6v0.3c0.6,2.1,1.1,5.1,1.5,9.1c0.2,1.8,0.3,3.2,0.5,4.2c0.4-3,0.6-6.6,0.6-10.8
			c0-0.6,0.1-1.4,0.2-2.5c0.2-1.1,0.2-1.9,0.2-2.5C74.6,35.2,74.5,35,74.5,34.9z"/>
		<path d="M78.2,42.8l0.2-6.1c0-1,0.4-1.8,1.2-2.4v0.2c0.1-0.1,0.2-0.1,0.2-0.1c0.5,0,1.1,0.9,1.9,2.6c0.8,1.8,1.5,3.7,2.1,5.8
			c0.6,2.1,1.2,4.2,1.8,6.4c0.6,2.1,1,3.4,1.1,3.8c0.4-4.6,0.7-10.1,0.7-16.6l0-0.9c0-0.6,0.3-1,0.8-1c0.3,0,0.5,0.1,0.7,0.4
			c0.2,0.3,0.2,0.6,0.2,0.9v2.5c0,2.6-0.1,6-0.3,10.3c-0.2,4.3-0.5,6.7-0.8,7.2c-0.6,0.2-1,0.3-1.2,0.3s-0.4-0.1-0.5-0.2
			c-0.1-0.2-0.2-0.4-0.3-0.7s-0.1-0.5-0.2-0.6l0-0.1c0-0.8-0.8-3.4-2.3-7.7c-1.6-4.3-2.7-7.3-3.4-8.9v16.4c0,0,0.1,0.1,0.1,0.2
			c0.1,0.2,0.2,0.5,0.2,0.7c0,0.2-0.1,0.4-0.3,0.6c-0.2,0.2-0.4,0.3-0.7,0.3c-0.7,0-1.1-0.7-1.1-2L78.2,42.8z"/>
		<path d="M91.8,39.5l-0.2-2.8c0-1.5,0.5-2.3,1.4-2.3c0.6,0,1.4,0.1,2.4,0.4c1,0.3,1.5,0.6,1.5,1c0,0.4-0.3,0.8-1,1
			c-1-0.3-1.8-0.5-2.5-0.6c0,0.5,0,0.9,0,1.4l-0.1,4.7c0,0,0,0.2,0.1,0.5l1.2,0c1.1,0,1.6,0.3,1.6,0.9c0,0.2-0.1,0.4-0.3,0.6
			c-0.2,0.2-0.4,0.3-0.7,0.3c-0.3,0-0.6,0-0.9-0.1h-0.8c0.1,0.8,0.1,1.7,0.1,2.5l-0.1,5.9c0,1.2,0,1.8,0.1,1.8l2.4-0.1
			c0.8,0,1.2,0.3,1.2,0.8c0,0.3-0.1,0.6-0.4,0.7c-0.3,0.1-0.6,0.2-1,0.2h-2.8c-0.3,0-0.5-0.1-0.8-0.3c-0.2-0.2-0.4-0.4-0.4-0.7v-0.9
			l-0.2-5.5L91.8,39.5z"/>
		<path d="M100.3,45.1l0,3.5c0,2.9,0.2,5.1,0.6,6.8l-0.4,0.9h-0.9l-0.4-0.5c0-1,0-2.1,0-3.3c0-1.2-0.1-3.8-0.3-7.8s-0.3-7-0.3-8.9
			c0-1,0.4-1.5,1.1-1.5c1.1,0,2.1,0.3,2.9,0.9c0.8,0.6,1.2,1.4,1.2,2.5V40c0,0.6-0.1,1.2-0.4,1.7c-0.2,0.5-0.5,1.1-0.8,1.6
			c-0.3,0.6-0.5,0.9-0.5,0.9c0.1,0.5,0.3,1.6,0.6,3.1c0.6,3.4,1.3,5.8,2.1,7.3c0.2,0.4,0.3,0.8,0.3,1s-0.1,0.4-0.2,0.6
			s-0.3,0.2-0.5,0.2c-0.5,0-0.9-0.5-1.3-1.6c-0.4-1-0.8-2.2-1-3.5c-0.8-3.9-1.2-6-1.4-6.4H100.3z M100.4,35.5l-0.1,0.5
			c0,0.9,0,2.2,0.1,3.9c0,1.7,0.1,2.9,0.1,3.7c0.5-0.3,0.9-1,1.2-2.1s0.5-2,0.5-2.6c0-0.6,0-1,0-1.3c0-0.3-0.1-0.6-0.2-0.9
			C101.7,35.9,101.2,35.5,100.4,35.5z"/>
	</g>
</g>
<g>
	<g>
		<path d="M183.2,116.3l0.2-6.1c0-1,0.4-1.8,1.2-2.4v0.2c0.1-0.1,0.2-0.1,0.2-0.1c0.5,0,1.1,0.9,1.9,2.6c0.8,1.8,1.5,3.7,2.1,5.8
			c0.6,2.1,1.2,4.2,1.8,6.4c0.6,2.1,1,3.4,1.1,3.8c0.4-4.6,0.7-10.1,0.7-16.6l0-0.9c0-0.6,0.3-1,0.8-1c0.3,0,0.5,0.1,0.7,0.4
			c0.2,0.3,0.2,0.6,0.2,0.9v2.5c0,2.6-0.1,6-0.3,10.3c-0.2,4.3-0.5,6.7-0.8,7.2c-0.6,0.2-1,0.3-1.2,0.3s-0.4-0.1-0.5-0.2
			c-0.1-0.2-0.2-0.4-0.3-0.7s-0.1-0.5-0.2-0.6l0-0.1c0-0.8-0.8-3.4-2.3-7.7c-1.6-4.3-2.7-7.3-3.4-8.9v16.4c0,0,0.1,0.1,0.1,0.2
			c0.1,0.2,0.2,0.5,0.2,0.7c0,0.2-0.1,0.4-0.3,0.6c-0.2,0.2-0.4,0.3-0.7,0.3c-0.7,0-1.1-0.7-1.1-2L183.2,116.3z"/>
		<path d="M196.7,113l-0.2-2.8c0-1.5,0.5-2.3,1.4-2.3c0.6,0,1.4,0.1,2.4,0.4c1,0.3,1.5,0.6,1.5,1c0,0.4-0.3,0.8-1,1
			c-1-0.3-1.8-0.5-2.5-0.6c0,0.5,0,0.9,0,1.4l-0.1,4.7c0,0,0,0.2,0.1,0.5l1.2,0c1.1,0,1.6,0.3,1.6,0.9c0,0.2-0.1,0.4-0.3,0.6
			c-0.2,0.2-0.4,0.3-0.7,0.3c-0.3,0-0.6,0-0.9-0.1h-0.8c0.1,0.8,0.1,1.7,0.1,2.5l-0.1,5.9c0,1.2,0,1.8,0.1,1.8l2.4-0.1
			c0.8,0,1.2,0.3,1.2,0.8c0,0.3-0.1,0.6-0.4,0.7c-0.3,0.1-0.6,0.2-1,0.2h-2.8c-0.3,0-0.5-0.1-0.8-0.3c-0.2-0.2-0.4-0.4-0.4-0.7v-0.9
			l-0.2-5.5L196.7,113z"/>
		<path d="M212.7,108.4c0-0.5,0.3-0.8,0.9-0.8s0.9,0.3,0.9,0.8c0,0.7,0,1.1-0.1,1.3v0.2c-0.3,0.9-0.4,1.9-0.4,3v2.4
			c0,1.4-0.2,3.4-0.5,6.1c-0.3,2.7-0.5,4.7-0.5,5.9c0,2.2-0.4,3.3-1.3,3.3c-0.6,0-0.9-0.5-0.9-1.4s0-1.9-0.1-2.8s-0.2-2-0.3-3.1
			c-0.1-1.1-0.3-2.1-0.4-2.8c-0.1-0.7-0.3-1.8-0.5-3.2c-0.2-1.4-0.4-2.3-0.4-2.8c-0.1,0.7-0.1,1.5-0.1,2.2s-0.1,2.1-0.2,4.2
			c-0.2,2-0.5,4.1-0.9,6.2c-0.4,2.1-0.9,3.2-1.4,3.2c-0.8,0-1.5-2.3-1.9-6.8c-0.2-2-0.4-3.9-0.5-5.9c-0.4-5.1-0.7-7.9-1-8.6
			c0.2-0.4,0.5-0.6,0.9-0.6c0.7,0,1.1,0.8,1.1,2.4c0,1.6,0.2,4,0.7,7.2c0.5,3.2,0.7,5.6,0.8,7.1c0.9-6.3,1.4-11.1,1.4-14.4l0.9-0.4
			c0.3,0,0.5,0.1,0.7,0.2c0.2,0.1,0.3,0.3,0.3,0.6v0.3c0.6,2.1,1.1,5.1,1.5,9.1c0.2,1.8,0.3,3.2,0.5,4.2c0.4-3,0.6-6.6,0.6-10.8
			c0-0.6,0.1-1.4,0.2-2.5c0.2-1.1,0.2-1.9,0.2-2.5C212.7,108.7,212.7,108.5,212.7,108.4z"/>
		<path d="M220.4,115.4l0-3.1c0-1.3-0.1-2.3-0.3-3c0.1-0.8,0.4-1.1,0.9-1.1h1.4c1.3,0,2.1,0.5,2.6,1.6c0.4,0.9,0.7,2,0.7,3.2
			c0,1.5,0,2.5-0.1,2.8c-0.1,0.3-0.2,0.7-0.2,1c-0.1,0.3-0.2,0.6-0.3,0.7c-0.1,0.2-0.3,0.4-0.5,0.6c-0.2,0.2-0.4,0.4-0.7,0.6
			c-0.5,0.4-1.2,0.6-2,0.9v3.5l0.3,6.2c0,0.3-0.1,0.5-0.3,0.7c-0.2,0.2-0.5,0.3-0.8,0.3l-0.7-0.4c-0.3-1.2-0.4-2.8-0.4-4.8l0.1-5.8
			c-0.1-0.3-0.2-0.6-0.2-0.8v-0.1C220.3,117.8,220.4,116.8,220.4,115.4z M222,111.7l0.1,6.4v0c1.3-0.2,1.9-2,1.9-5.5
			c0-1-0.1-1.7-0.4-2.1c-0.3-0.4-0.7-0.6-1.3-0.6c0,0-0.1,0-0.4,0V111.7z"/>
		<path d="M235,122.9l0.4,2c0,0.3,0.1,0.9,0.3,1.9c0.2,1,0.3,1.7,0.3,2v0c0,0.5-0.2,0.8-0.5,0.9c-0.5,0-0.8-0.1-1.1-0.2
			c-0.3-0.1-0.4-0.4-0.4-0.9c0-0.9-0.2-2.3-0.5-4l-3.2-0.5c-0.2,0.7-0.4,1.5-0.5,2.4c-0.1,0.9-0.2,1.5-0.3,1.9
			c-0.2,0.8-0.5,1.2-1.1,1.2c-0.3,0-0.5-0.1-0.7-0.2c-0.2-0.2-0.3-0.4-0.3-0.6l0.1-0.3c1.5-5.7,2.6-11.2,3.3-16.5
			c0-0.1,0.1-0.6,0.1-1.3c0.1-1.6,0.3-2.6,0.6-3h1.1c0.3,0,0.6,0.1,0.8,0.2s0.3,0.3,0.3,0.6c0,1.7,0.2,4.1,0.7,7.4
			S235,121.4,235,122.9z M233.3,123.5c-0.1-0.3-0.1-0.9-0.1-1.7c0-0.8,0-1.8-0.1-2.9s-0.2-2.5-0.4-4.1s-0.3-2.7-0.4-3.4
			c-1,5.5-1.6,9.3-1.9,11.6C230.8,123.2,231.8,123.4,233.3,123.5z"/>
		<path d="M239.3,118.6l0,3.5c0,2.9,0.2,5.1,0.6,6.8l-0.4,0.9h-0.9l-0.4-0.5c0-1,0-2.1,0-3.3c0-1.2-0.1-3.8-0.3-7.8s-0.3-7-0.3-8.9
			c0-1,0.4-1.5,1.1-1.5c1.1,0,2.1,0.3,2.9,0.9c0.8,0.6,1.2,1.4,1.2,2.5v2.3c0,0.6-0.1,1.2-0.4,1.7c-0.2,0.5-0.5,1.1-0.8,1.6
			c-0.3,0.6-0.5,0.9-0.5,0.9c0.1,0.5,0.3,1.6,0.6,3.1c0.6,3.4,1.3,5.8,2.1,7.3c0.2,0.4,0.3,0.8,0.3,1s-0.1,0.4-0.2,0.6
			s-0.3,0.2-0.5,0.2c-0.5,0-0.9-0.5-1.3-1.6c-0.4-1-0.8-2.2-1-3.5c-0.8-3.9-1.2-6-1.4-6.4H239.3z M239.4,109l-0.1,0.5
			c0,0.9,0,2.2,0.1,3.9c0,1.7,0.1,2.9,0.1,3.7c0.5-0.3,0.9-1,1.2-2.1s0.5-2,0.5-2.6c0-0.6,0-1,0-1.3c0-0.3-0.1-0.6-0.2-0.9
			C240.7,109.4,240.2,109,239.4,109z"/>
		<path d="M246.1,113l-0.2-2.8c0-1.5,0.5-2.3,1.4-2.3c0.6,0,1.4,0.1,2.4,0.4c1,0.3,1.5,0.6,1.5,1c0,0.4-0.3,0.8-1,1
			c-1-0.3-1.8-0.5-2.5-0.6c0,0.5,0,0.9,0,1.4l-0.1,4.7c0,0,0,0.2,0.1,0.5l1.2,0c1.1,0,1.6,0.3,1.6,0.9c0,0.2-0.1,0.4-0.3,0.6
			c-0.2,0.2-0.4,0.3-0.7,0.3c-0.3,0-0.6,0-0.9-0.1h-0.8c0.1,0.8,0.1,1.7,0.1,2.5l-0.1,5.9c0,1.2,0,1.8,0.1,1.8l2.4-0.1
			c0.8,0,1.2,0.3,1.2,0.8c0,0.3-0.1,0.6-0.4,0.7c-0.3,0.1-0.6,0.2-1,0.2h-2.8c-0.3,0-0.5-0.1-0.8-0.3c-0.2-0.2-0.4-0.4-0.4-0.7v-0.9
			l-0.2-5.5L246.1,113z"/>
		<path d="M253,116.3l0.2-6.1c0-1,0.4-1.8,1.2-2.4v0.2c0.1-0.1,0.2-0.1,0.2-0.1c0.5,0,1.1,0.9,1.9,2.6c0.8,1.8,1.5,3.7,2.1,5.8
			c0.6,2.1,1.2,4.2,1.8,6.4c0.6,2.1,1,3.4,1.1,3.8c0.4-4.6,0.7-10.1,0.7-16.6l0-0.9c0-0.6,0.3-1,0.8-1c0.3,0,0.5,0.1,0.7,0.4
			c0.2,0.3,0.2,0.6,0.2,0.9v2.5c0,2.6-0.1,6-0.3,10.3c-0.2,4.3-0.5,6.7-0.8,7.2c-0.6,0.2-1,0.3-1.2,0.3s-0.4-0.1-0.5-0.2
			c-0.1-0.2-0.2-0.4-0.3-0.7s-0.1-0.5-0.2-0.6l0-0.1c0-0.8-0.8-3.4-2.3-7.7c-1.6-4.3-2.7-7.3-3.4-8.9v16.4c0,0,0.1,0.1,0.1,0.2
			c0.1,0.2,0.2,0.5,0.2,0.7c0,0.2-0.1,0.4-0.3,0.6c-0.2,0.2-0.4,0.3-0.7,0.3c-0.7,0-1.1-0.7-1.1-2L253,116.3z"/>
		<path d="M269.2,129l-0.1-2.5c0,0,0-0.4,0-1.1c-0.1-0.3-0.3-2.7-0.5-7.4c-0.3-4.6-0.4-7.5-0.4-8.5c0,0-0.1,0-0.1,0
			c-1.8,0-2.6-0.4-2.6-1c0-0.2,0.1-0.4,0.4-0.5c0.2-0.1,0.5-0.2,0.7-0.2l4.4,0.3l0.5,0c0.7,0,1,0.3,1,0.8c0,0.3-0.1,0.5-0.3,0.6
			c-0.2,0.2-0.5,0.2-0.7,0.2l-1.5-0.2l-0.1,0.3c0,2.1,0.2,5.1,0.5,9.3c0.4,4.1,0.5,7.2,0.5,9.3c0,0.3-0.1,0.5-0.4,0.7
			c-0.2,0.2-0.5,0.3-0.8,0.3L269.2,129z"/>
	</g>
</g>
<g>
	<g>
		<path d="M212.2,39.7l-0.2-2.8c0-1.5,0.5-2.3,1.4-2.3c0.6,0,1.4,0.1,2.4,0.4c1,0.3,1.5,0.6,1.5,1c0,0.4-0.3,0.8-1,1
			c-1-0.3-1.8-0.5-2.5-0.6c0,0.5,0,0.9,0,1.4l-0.1,4.7c0,0,0,0.2,0.1,0.5l1.2,0c1.1,0,1.6,0.3,1.6,0.9c0,0.2-0.1,0.4-0.3,0.6
			c-0.2,0.2-0.4,0.3-0.7,0.3c-0.3,0-0.6,0-0.9-0.1h-0.8c0.1,0.8,0.1,1.7,0.1,2.5l-0.1,5.9c0,1.2,0,1.8,0.1,1.8l2.4-0.1
			c0.8,0,1.2,0.3,1.2,0.8c0,0.3-0.1,0.6-0.4,0.7c-0.3,0.1-0.6,0.2-1,0.2h-2.8c-0.3,0-0.5-0.1-0.8-0.3c-0.2-0.2-0.4-0.4-0.4-0.7v-0.9
			l-0.2-5.5L212.2,39.7z"/>
		<path d="M221.1,37.9l0.1,7.8c-0.1,0.3-0.2,0.7-0.2,1.1v0.7l-0.1,5.2c0,1.5,0.4,2.2,1.1,2.2l1.4,0c1.2,0,1.8,0.3,1.8,1
			c0,0.2-0.1,0.4-0.3,0.6c-0.2,0.2-0.4,0.2-0.7,0.3c-0.8-0.3-1.8-0.4-2.9-0.4c-0.4,0.2-0.7,0.3-1,0.3c-0.3,0-0.6-0.1-0.8-0.3
			c-0.2-0.2-0.3-0.5-0.3-0.7c0-1.6,0.1-4,0.2-7.3c0.1-3.2,0.2-5.7,0.2-7.3v-0.2c-0.1-1.4-0.2-2.4-0.2-3.1c0-2.1,0.4-3.1,1.1-3.1
			c0.2,0,0.4,0.1,0.6,0.2s0.2,0.4,0.2,0.6L221.1,37.9z"/>
		<path d="M226.7,52.1l0.1-10.3c0-0.7-0.1-1.8-0.2-3.2s-0.2-2.4-0.2-2.7c0-0.4,0.1-0.7,0.4-0.9c0.2-0.2,0.5-0.3,0.8-0.3
			c2.2,0,4.1,1.3,5.5,3.9c0.8,1.5,1.2,3.1,1.2,4.7l-0.1,1.6v1.8c0,2.2-0.1,3.6-0.3,4.4c-0.2,0.7-0.4,1.3-0.6,1.8
			c-0.2,0.5-0.5,0.9-0.8,1.3c-0.7,0.9-1.6,1.6-2.6,2.1h-2.4C227,56.4,226.7,54.9,226.7,52.1z M229,53.9v0.8c1.9,0,3-1.9,3.4-5.7
			c0.1-0.9,0.1-1.7,0.1-2.5c0-6.6-1.3-10-3.8-10.3c-0.2,0.9-0.2,2-0.2,3.5c0,1.5,0.1,3.9,0.2,7.1C228.9,49.9,229,52.3,229,53.9z"/>
		<path d="M236.6,39.7l-0.2-2.8c0-1.5,0.5-2.3,1.4-2.3c0.6,0,1.4,0.1,2.4,0.4c1,0.3,1.5,0.6,1.5,1c0,0.4-0.3,0.8-1,1
			c-1-0.3-1.8-0.5-2.5-0.6c0,0.5,0,0.9,0,1.4l-0.1,4.7c0,0,0,0.2,0.1,0.5l1.2,0c1.1,0,1.6,0.3,1.6,0.9c0,0.2-0.1,0.4-0.3,0.6
			c-0.2,0.2-0.4,0.3-0.7,0.3c-0.3,0-0.6,0-0.9-0.1h-0.8c0.1,0.8,0.1,1.7,0.1,2.5l-0.1,5.9c0,1.2,0,1.8,0.1,1.8l2.4-0.1
			c0.8,0,1.2,0.3,1.2,0.8c0,0.3-0.1,0.6-0.4,0.7c-0.3,0.1-0.6,0.2-1,0.2h-2.8c-0.3,0-0.5-0.1-0.8-0.3c-0.2-0.2-0.4-0.4-0.4-0.7v-0.9
			l-0.2-5.5L236.6,39.7z"/>
		<path d="M245.2,45.2l0,3.5c0,2.9,0.2,5.1,0.6,6.8l-0.4,0.9h-0.9L244,56c0-1,0-2.1,0-3.3c0-1.2-0.1-3.8-0.3-7.8s-0.3-7-0.3-8.9
			c0-1,0.4-1.5,1.1-1.5c1.1,0,2.1,0.3,2.9,0.9c0.8,0.6,1.2,1.4,1.2,2.5v2.3c0,0.6-0.1,1.2-0.4,1.7c-0.2,0.5-0.5,1.1-0.8,1.6
			c-0.3,0.6-0.5,0.9-0.5,0.9c0.1,0.5,0.3,1.6,0.6,3.1c0.6,3.4,1.3,5.8,2.1,7.3c0.2,0.4,0.3,0.8,0.3,1s-0.1,0.4-0.2,0.6
			s-0.3,0.2-0.5,0.2c-0.5,0-0.9-0.5-1.3-1.6c-0.4-1-0.8-2.2-1-3.5c-0.8-3.9-1.2-6-1.4-6.4H245.2z M245.3,35.6l-0.1,0.5
			c0,0.9,0,2.2,0.1,3.9c0,1.7,0.1,2.9,0.1,3.7c0.5-0.3,0.9-1,1.2-2.1s0.5-2,0.5-2.6c0-0.6,0-1,0-1.3c0-0.3-0.1-0.6-0.2-0.9
			C246.5,36,246,35.7,245.3,35.6z"/>
		<path d="M255,48.3l0-1.9v-0.8c0-3.2,0.2-5.4,0.5-6.7c0.4-1.6,0.9-2.6,1.6-3.2c0.9-0.8,2.1-1.2,3.5-1.2c0.3,0,0.6,0.1,0.8,0.2
			c0.2,0.2,0.2,0.4,0.2,0.6c0,0.2-0.1,0.4-0.2,0.6c-0.1,0.2-0.3,0.3-0.5,0.3h-1.5c-0.4,0-0.8,0.3-1.2,0.9c-0.3,0.6-0.6,1.3-0.7,2.1
			c-0.3,1.6-0.4,2.9-0.4,3.9v0.2l-0.1,6.3c0,1.3,0.1,2.2,0.2,2.8c0.1,0.5,0.3,0.9,0.4,1.2c0.2,0.3,0.3,0.6,0.5,0.8
			c0.5,0.5,1.1,0.7,1.9,0.7c0.3,0,0.5-0.1,0.7-0.3c0.3,0,0.5,0.1,0.7,0.2c0.2,0.1,0.3,0.3,0.3,0.5c0,0.9-0.6,1.3-1.8,1.3
			c-0.5,0-1-0.1-1.5-0.2s-0.9-0.3-1.2-0.5C255.7,55,255,52.5,255,48.3z"/>
		<path d="M270.6,49.5l0.4,2c0,0.3,0.1,0.9,0.3,1.9c0.2,1,0.3,1.7,0.3,2v0c0,0.5-0.2,0.8-0.5,0.9c-0.5,0-0.8-0.1-1.1-0.2
			c-0.3-0.1-0.4-0.4-0.4-0.9c0-0.9-0.2-2.3-0.5-4l-3.2-0.5c-0.2,0.7-0.4,1.5-0.5,2.4c-0.1,0.9-0.2,1.5-0.3,1.9
			c-0.2,0.8-0.5,1.2-1.1,1.2c-0.3,0-0.5-0.1-0.7-0.2c-0.2-0.2-0.3-0.4-0.3-0.6l0.1-0.3c1.5-5.7,2.6-11.2,3.3-16.5
			c0-0.1,0.1-0.6,0.1-1.3c0.1-1.6,0.3-2.6,0.6-3h1.1c0.3,0,0.6,0.1,0.8,0.2s0.3,0.3,0.3,0.6c0,1.7,0.2,4.1,0.7,7.4
			S270.6,48.1,270.6,49.5z M268.9,50.2c-0.1-0.3-0.1-0.9-0.1-1.7c0-0.8,0-1.8-0.1-2.9s-0.2-2.5-0.4-4.1s-0.3-2.7-0.4-3.4
			c-1,5.5-1.6,9.3-1.9,11.6C266.3,49.9,267.3,50.1,268.9,50.2z"/>
		<path d="M274.8,45.2l0,3.5c0,2.9,0.2,5.1,0.6,6.8l-0.4,0.9h-0.9l-0.4-0.5c0-1,0-2.1,0-3.3c0-1.2-0.1-3.8-0.3-7.8s-0.3-7-0.3-8.9
			c0-1,0.4-1.5,1.1-1.5c1.1,0,2.1,0.3,2.9,0.9c0.8,0.6,1.2,1.4,1.2,2.5v2.3c0,0.6-0.1,1.2-0.4,1.7c-0.2,0.5-0.5,1.1-0.8,1.6
			c-0.3,0.6-0.5,0.9-0.5,0.9c0.1,0.5,0.3,1.6,0.6,3.1c0.6,3.4,1.3,5.8,2.1,7.3c0.2,0.4,0.3,0.8,0.3,1s-0.1,0.4-0.2,0.6
			s-0.3,0.2-0.5,0.2c-0.5,0-0.9-0.5-1.3-1.6c-0.4-1-0.8-2.2-1-3.5c-0.8-3.9-1.2-6-1.4-6.4H274.8z M275,35.6l-0.1,0.5
			c0,0.9,0,2.2,0.1,3.9c0,1.7,0.1,2.9,0.1,3.7c0.5-0.3,0.9-1,1.2-2.1s0.5-2,0.5-2.6c0-0.6,0-1,0-1.3c0-0.3-0.1-0.6-0.2-0.9
			C276.2,36,275.7,35.7,275,35.6z"/>
		<path d="M281.6,39.7l-0.2-2.8c0-1.5,0.5-2.3,1.4-2.3c0.6,0,1.4,0.1,2.4,0.4c1,0.3,1.5,0.6,1.5,1c0,0.4-0.3,0.8-1,1
			c-1-0.3-1.8-0.5-2.5-0.6c0,0.5,0,0.9,0,1.4l-0.1,4.7c0,0,0,0.2,0.1,0.5l1.2,0c1.1,0,1.6,0.3,1.6,0.9c0,0.2-0.1,0.4-0.3,0.6
			c-0.2,0.2-0.4,0.3-0.7,0.3c-0.3,0-0.6,0-0.9-0.1h-0.8c0.1,0.8,0.1,1.7,0.1,2.5l-0.1,5.9c0,1.2,0,1.8,0.1,1.8l2.4-0.1
			c0.8,0,1.2,0.3,1.2,0.8c0,0.3-0.1,0.6-0.4,0.7c-0.3,0.1-0.6,0.2-1,0.2h-2.8c-0.3,0-0.5-0.1-0.8-0.3c-0.2-0.2-0.4-0.4-0.4-0.7v-0.9
			l-0.2-5.5L281.6,39.7z"/>
		<path d="M296.5,49.6l0.2,3.5c0,1.1-0.4,1.9-1.1,2.5s-1.6,0.9-2.6,0.9c-1.5,0-2.6-0.6-3.3-1.7c-0.5-0.8-0.8-1.5-0.9-2.3
			c-0.1-0.7-0.2-1.3-0.3-1.6c-0.1-0.4-0.1-0.9-0.1-1.5c0-0.9-0.1-1.6-0.1-2.2v-1.4c0-3.1,0.1-5,0.3-5.8s0.4-1.6,0.6-2.3
			c0.2-0.7,0.5-1.2,0.9-1.6c0.8-0.9,1.8-1.4,2.8-1.4s1.6,0.3,1.6,0.8c0,0.3-0.1,0.5-0.3,0.6c-0.2,0.2-0.5,0.2-0.7,0.2l-0.7-0.1
			c-0.8,0-1.3,0.7-1.7,2.2c-0.6,2.1-0.8,4.7-0.8,7.7c0,2.1,0.1,3.5,0.2,4.2s0.3,1.4,0.4,1.9c0.1,0.5,0.3,1,0.5,1.3
			c0.5,0.8,1.1,1.1,1.9,1.1c1.1,0,1.6-1.7,1.6-5.2V48c-0.2-0.1-0.4-0.1-0.8-0.1l-0.6,0c-0.8,0-1.1-0.2-1.1-0.7
			c0-0.3,0.1-0.5,0.3-0.7c0.2-0.2,0.5-0.2,0.8-0.2v0h0.4c2,0,2.9,0.3,2.9,1L296.5,49.6z"/>
		<path d="M302.2,45.3l0.2,6.9v1l0,0.9h0.4l0.9,0c0.9,0,1.3,0.3,1.3,0.8c0,0.3-0.1,0.5-0.3,0.7s-0.5,0.3-0.8,0.3h-1.4
			c-1,0-1.6,0-1.9-0.1c-0.2,0-0.3,0-0.4,0c-0.8,0-1.2-0.2-1.2-0.7c0-0.2,0.1-0.4,0.2-0.6s0.3-0.3,0.4-0.3h0.9l0.1-0.4l-0.2-6.9
			l0.2-7.3c0-1.2-0.1-2.4-0.2-3.5h-0.6l-0.7,0c-0.3,0-0.6-0.1-0.7-0.2s-0.3-0.4-0.3-0.7c0-0.5,0.5-0.7,1.6-0.7h3.9
			c0.9,0,1.3,0.2,1.3,0.7c0,0.2-0.1,0.4-0.3,0.6c-0.2,0.2-0.4,0.3-0.7,0.3h-1.7c0.1,0.9,0.1,1.9,0.1,3L302.2,45.3z"/>
		<path d="M311.1,52.2c0.5-2.4,1.1-5.9,1.8-10.4c0.7-4.5,1.1-7.2,1.2-7.9h0.7c0.2,0,0.4,0.1,0.5,0.2c0.2,0.1,0.2,0.3,0.2,0.5
			c0,1.2-0.3,2.8-0.8,4.6c-0.5,1.9-0.8,3-0.9,3.6s-0.2,1.4-0.3,2.6c-0.1,1.2-0.2,2.4-0.3,3.5s-0.3,2.3-0.5,3.5s-0.5,2.2-0.9,2.9
			c-0.4,0.7-0.8,1.1-1.4,1.1l-0.6-0.5c0-2.6-0.3-5.3-0.8-8.1c-0.5-2.8-1-5.1-1.5-6.9s-0.8-3.1-1-3.6c-0.4-1.2-0.6-1.9-0.6-2.2
			c0-0.3,0.1-0.5,0.2-0.7c0.2-0.1,0.3-0.2,0.5-0.2c0.6,0,1.2,1,1.7,3.1c0.6,2.1,1,4,1.2,5.9s0.5,3.2,0.6,4.2s0.3,1.9,0.4,2.9
			C311,51.5,311,52,311.1,52.2z"/>
		<path d="M317.6,39.7l-0.2-2.8c0-1.5,0.5-2.3,1.4-2.3c0.6,0,1.4,0.1,2.4,0.4c1,0.3,1.5,0.6,1.5,1c0,0.4-0.3,0.8-1,1
			c-1-0.3-1.8-0.5-2.5-0.6c0,0.5,0,0.9,0,1.4l-0.1,4.7c0,0,0,0.2,0.1,0.5l1.2,0c1.1,0,1.6,0.3,1.6,0.9c0,0.2-0.1,0.4-0.3,0.6
			c-0.2,0.2-0.4,0.3-0.7,0.3c-0.3,0-0.6,0-0.9-0.1h-0.8c0.1,0.8,0.1,1.7,0.1,2.5l-0.1,5.9c0,1.2,0,1.8,0.1,1.8l2.4-0.1
			c0.8,0,1.2,0.3,1.2,0.8c0,0.3-0.1,0.6-0.4,0.7c-0.3,0.1-0.6,0.2-1,0.2h-2.8c-0.3,0-0.5-0.1-0.8-0.3c-0.2-0.2-0.4-0.4-0.4-0.7v-0.9
			l-0.2-5.5L317.6,39.7z"/>
		<path d="M326.1,45.2l0,3.5c0,2.9,0.2,5.1,0.6,6.8l-0.4,0.9h-0.9L325,56c0-1,0-2.1,0-3.3c0-1.2-0.1-3.8-0.3-7.8s-0.3-7-0.3-8.9
			c0-1,0.4-1.5,1.1-1.5c1.1,0,2.1,0.3,2.9,0.9c0.8,0.6,1.2,1.4,1.2,2.5v2.3c0,0.6-0.1,1.2-0.4,1.7c-0.2,0.5-0.5,1.1-0.8,1.6
			c-0.3,0.6-0.5,0.9-0.5,0.9c0.1,0.5,0.3,1.6,0.6,3.1c0.6,3.4,1.3,5.8,2.1,7.3c0.2,0.4,0.3,0.8,0.3,1s-0.1,0.4-0.2,0.6
			s-0.3,0.2-0.5,0.2c-0.5,0-0.9-0.5-1.3-1.6c-0.4-1-0.8-2.2-1-3.5c-0.8-3.9-1.2-6-1.4-6.4H326.1z M326.2,35.6l-0.1,0.5
			c0,0.9,0,2.2,0.1,3.9c0,1.7,0.1,2.9,0.1,3.7c0.5-0.3,0.9-1,1.2-2.1s0.5-2,0.5-2.6c0-0.6,0-1,0-1.3c0-0.3-0.1-0.6-0.2-0.9
			C327.5,36,327,35.7,326.2,35.6z"/>
	</g>
</g>
<g>
	<g>
		<path d="M362.5,35.2c0.5-2.4,1.1-5.9,1.8-10.4c0.7-4.5,1.1-7.2,1.2-7.9h0.7c0.2,0,0.4,0.1,0.5,0.2c0.2,0.1,0.2,0.3,0.2,0.5
			c0,1.2-0.3,2.8-0.8,4.6c-0.5,1.9-0.8,3-0.9,3.6s-0.2,1.4-0.3,2.6c-0.1,1.2-0.2,2.4-0.3,3.5s-0.3,2.3-0.5,3.5s-0.5,2.2-0.9,2.9
			c-0.4,0.7-0.8,1.1-1.4,1.1l-0.6-0.5c0-2.6-0.3-5.3-0.8-8.1c-0.5-2.8-1-5.1-1.5-6.9s-0.8-3.1-1-3.6c-0.4-1.2-0.6-1.9-0.6-2.2
			c0-0.3,0.1-0.5,0.2-0.7c0.2-0.1,0.3-0.2,0.5-0.2c0.6,0,1.2,1,1.7,3.1c0.6,2.1,1,4,1.2,5.9s0.5,3.2,0.6,4.2s0.3,1.9,0.4,2.9
			C362.4,34.5,362.4,35,362.5,35.2z"/>
		<path d="M369,22.7l-0.2-2.8c0-1.5,0.5-2.3,1.4-2.3c0.6,0,1.4,0.1,2.4,0.4c1,0.3,1.5,0.6,1.5,1c0,0.4-0.3,0.8-1,1
			c-1-0.3-1.8-0.5-2.5-0.6c0,0.5,0,0.9,0,1.4l-0.1,4.7c0,0,0,0.2,0.1,0.5l1.2,0c1.1,0,1.6,0.3,1.6,0.9c0,0.2-0.1,0.4-0.3,0.6
			c-0.2,0.2-0.4,0.3-0.7,0.3c-0.3,0-0.6,0-0.9-0.1h-0.8c0.1,0.8,0.1,1.7,0.1,2.5l-0.1,5.9c0,1.2,0,1.8,0.1,1.8l2.4-0.1
			c0.8,0,1.2,0.3,1.2,0.8c0,0.3-0.1,0.6-0.4,0.7c-0.3,0.1-0.6,0.2-1,0.2h-2.8c-0.3,0-0.5-0.1-0.8-0.3c-0.2-0.2-0.4-0.4-0.4-0.7v-0.9
			l-0.2-5.5L369,22.7z"/>
		<path d="M383.8,32.6l0.2,3.5c0,1.1-0.4,1.9-1.1,2.5s-1.6,0.9-2.6,0.9c-1.5,0-2.6-0.6-3.3-1.7c-0.5-0.8-0.8-1.5-0.9-2.3
			c-0.1-0.7-0.2-1.3-0.3-1.6c-0.1-0.4-0.1-0.9-0.1-1.5c0-0.9-0.1-1.6-0.1-2.2v-1.4c0-3.1,0.1-5,0.3-5.8s0.4-1.6,0.6-2.3
			c0.2-0.7,0.5-1.2,0.9-1.6c0.8-0.9,1.8-1.4,2.8-1.4s1.6,0.3,1.6,0.8c0,0.3-0.1,0.5-0.3,0.6c-0.2,0.2-0.5,0.2-0.7,0.2l-0.7-0.1
			c-0.8,0-1.3,0.7-1.7,2.2c-0.6,2.1-0.8,4.7-0.8,7.7c0,2.1,0.1,3.5,0.2,4.2s0.3,1.4,0.4,1.9c0.1,0.5,0.3,1,0.5,1.3
			c0.5,0.8,1.1,1.1,1.9,1.1c1.1,0,1.6-1.7,1.6-5.2V31c-0.2-0.1-0.4-0.1-0.8-0.1l-0.6,0c-0.8,0-1.1-0.2-1.1-0.7
			c0-0.3,0.1-0.5,0.3-0.7c0.2-0.2,0.5-0.2,0.8-0.2v0h0.4c2,0,2.9,0.3,2.9,1L383.8,32.6z"/>
		<path d="M393.3,32.5l0.4,2c0,0.3,0.1,0.9,0.3,1.9c0.2,1,0.3,1.7,0.3,2v0c0,0.5-0.2,0.8-0.5,0.9c-0.5,0-0.8-0.1-1.1-0.2
			c-0.3-0.1-0.4-0.4-0.4-0.9c0-0.9-0.2-2.3-0.5-4l-3.2-0.5c-0.2,0.7-0.4,1.5-0.5,2.4c-0.1,0.9-0.2,1.5-0.3,1.9
			c-0.2,0.8-0.5,1.2-1.1,1.2c-0.3,0-0.5-0.1-0.7-0.2c-0.2-0.2-0.3-0.4-0.3-0.6l0.1-0.3c1.5-5.7,2.6-11.2,3.3-16.5
			c0-0.1,0.1-0.6,0.1-1.3c0.1-1.6,0.3-2.6,0.6-3h1.1c0.3,0,0.6,0.1,0.8,0.2s0.3,0.3,0.3,0.6c0,1.7,0.2,4.1,0.7,7.4
			S393.3,31.1,393.3,32.5z M391.6,33.2c-0.1-0.3-0.1-0.9-0.1-1.7c0-0.8,0-1.8-0.1-2.9s-0.2-2.5-0.4-4.1s-0.3-2.7-0.4-3.4
			c-1,5.5-1.6,9.3-1.9,11.6C389.1,32.9,390,33.1,391.6,33.2z"/>
		<path d="M395.9,26l0.2-6.1c0-1,0.4-1.8,1.2-2.4v0.2c0.1-0.1,0.2-0.1,0.2-0.1c0.5,0,1.1,0.9,1.9,2.6c0.8,1.8,1.5,3.7,2.1,5.8
			c0.6,2.1,1.2,4.2,1.8,6.4c0.6,2.1,1,3.4,1.1,3.8c0.4-4.6,0.7-10.1,0.7-16.6l0-0.9c0-0.6,0.3-1,0.8-1c0.3,0,0.5,0.1,0.7,0.4
			c0.2,0.3,0.2,0.6,0.2,0.9v2.5c0,2.6-0.1,6-0.3,10.3c-0.2,4.3-0.5,6.7-0.8,7.2c-0.6,0.2-1,0.3-1.2,0.3s-0.4-0.1-0.5-0.2
			c-0.1-0.2-0.2-0.4-0.3-0.7s-0.1-0.5-0.2-0.6l0-0.1c0-0.8-0.8-3.4-2.3-7.7c-1.6-4.3-2.7-7.3-3.4-8.9v16.4c0,0,0.1,0.1,0.1,0.2
			c0.1,0.2,0.2,0.5,0.2,0.7c0,0.2-0.1,0.4-0.3,0.6c-0.2,0.2-0.4,0.3-0.7,0.3c-0.7,0-1.1-0.7-1.1-2L395.9,26z"/>
	</g>
</g>
</svg>
