<?xml version="1.0" encoding="utf-8"?>
<!-- Generator: Adobe Illustrator 18.1.1, SVG Export Plug-In . SVG Version: 6.00 Build 0)  -->
<svg version="1.1" id="Layer_1" xmlns="http://www.w3.org/2000/svg" xmlns:xlink="http://www.w3.org/1999/xlink" x="0px" y="0px"
	 viewBox="0 0 500 350" enable-background="new 0 0 500 350" xml:space="preserve">
<g>
	
		<path fill="#F2F2F2" stroke="#999999" stroke-width="3" stroke-linecap="round" stroke-linejoin="round" stroke-miterlimit="10" d="
		M438,276H62V57.4C62,51.7,66.7,47,72.4,47h355.2c5.7,0,10.4,4.7,10.4,10.4V276z"/>
	
		<path fill="#F2F2F2" stroke="#999999" stroke-width="3" stroke-linecap="round" stroke-linejoin="round" stroke-miterlimit="10" d="
		M459.1,303H40.9C31,303,23,295,23,285.1V276h454v9.1C477,295,469,303,459.1,303z"/>
	
		<rect x="74" y="60.9" fill="#F2F2F2" stroke="#999999" stroke-width="3" stroke-linecap="round" stroke-linejoin="round" stroke-miterlimit="10" width="352" height="204.1"/>
	
		<rect x="74" y="60.9" fill="#FFFFFF" stroke="#999999" stroke-width="3" stroke-linecap="round" stroke-linejoin="round" stroke-miterlimit="10" width="91.7" height="204.1"/>
	
		<rect x="328.7" y="100.4" fill="#FFFFFF" stroke="#999999" stroke-width="1.7937" stroke-linecap="round" stroke-linejoin="round" stroke-miterlimit="10" width="49.4" height="91.1"/>
	
		<rect x="74" y="60.9" fill="#FFFFFF" stroke="#999999" stroke-width="3" stroke-linecap="round" stroke-linejoin="round" stroke-miterlimit="10" width="352" height="40.1"/>
	<g>
		<path fill="#A7CC3F" d="M349.8,133.2h-11.7l0.2-1.3l7.4-7.5c1.4-1.4,2.4-2.5,3-3.5s1-1.8,1.1-2.7c0.2-1.3,0-2.3-0.5-3.1
			c-0.5-0.7-1.4-1.1-2.6-1.1c-1.4,0-2.5,0.4-3.4,1.3c-0.9,0.9-1.5,2-1.7,3.4h-1.5l0-0.1c0.2-1.8,1-3.2,2.2-4.3s2.8-1.7,4.6-1.7
			c1.6,0,2.8,0.5,3.6,1.5c0.8,1,1.1,2.4,0.9,4c-0.2,1.2-0.7,2.3-1.5,3.4s-1.9,2.4-3.3,3.8l-6.2,6.3l0,0.1h9.6L349.8,133.2z"/>
		<path fill="#A7CC3F" d="M366.9,118.2c-0.2,1.2-0.7,2.2-1.5,3s-1.7,1.4-2.7,1.7c1,0.4,1.8,1,2.3,1.9c0.5,0.9,0.7,1.9,0.5,3
			c-0.4,1.9-1.2,3.4-2.5,4.3s-2.8,1.4-4.7,1.4c-1.7,0-3-0.5-4-1.5s-1.3-2.4-0.9-4.2c0.3-1.3,0.8-2.4,1.7-3.2
			c0.9-0.9,1.9-1.5,3.1-1.8c-0.9-0.4-1.6-1-2-1.8c-0.4-0.8-0.5-1.7-0.3-2.8c0.4-1.9,1.1-3.2,2.3-4.2c1.2-0.9,2.6-1.4,4.3-1.4
			c1.5,0,2.7,0.5,3.6,1.5C366.9,115.1,367.2,116.5,366.9,118.2z M363.8,127.8c0.3-1.4,0.1-2.4-0.6-3.2c-0.7-0.8-1.7-1.1-3-1.1
			c-1.2,0-2.3,0.4-3.4,1.2s-1.7,1.8-1.9,3.1c-0.3,1.4-0.1,2.5,0.6,3.2c0.7,0.7,1.7,1.1,3.1,1.1c1.2,0,2.3-0.4,3.4-1.1
			C362.9,130.2,363.6,129.1,363.8,127.8z M365.2,118.2c0.2-1.2,0.1-2.2-0.5-3c-0.6-0.7-1.5-1.1-2.6-1.1c-1.1,0-2.1,0.4-3,1.1
			c-0.9,0.8-1.5,1.7-1.7,2.9c-0.2,1.3-0.1,2.3,0.5,2.9c0.6,0.7,1.5,1,2.7,1c1.1,0,2-0.4,3-1.1S365,119.3,365.2,118.2z"/>
		<path fill="#B3B3B3" d="M340.1,144.4c0.3,0,0.5-0.1,0.7-0.3c0.2-0.2,0.3-0.4,0.3-0.6h1.1l0,0c0,0.5-0.2,0.9-0.6,1.3
			c-0.4,0.4-0.9,0.5-1.5,0.5c-0.8,0-1.4-0.3-1.8-0.8c-0.4-0.5-0.6-1.1-0.6-1.9v-0.2c0-0.8,0.2-1.4,0.6-1.9c0.4-0.5,1-0.8,1.8-0.8
			c0.6,0,1.2,0.2,1.6,0.6s0.6,0.8,0.6,1.4l0,0h-1.1c0-0.3-0.1-0.5-0.3-0.7c-0.2-0.2-0.4-0.3-0.8-0.3c-0.4,0-0.8,0.2-1,0.5
			c-0.2,0.3-0.3,0.7-0.3,1.2v0.2c0,0.5,0.1,0.9,0.3,1.2C339.3,144.3,339.6,144.4,340.1,144.4z"/>
		<path fill="#B3B3B3" d="M345.8,141l-0.5,0c-0.2,0-0.4,0-0.6,0.1c-0.2,0.1-0.3,0.2-0.4,0.4v3.7h-1.2V140h1.1l0.1,0.8
			c0.1-0.3,0.3-0.5,0.5-0.6c0.2-0.2,0.5-0.2,0.7-0.2c0.1,0,0.1,0,0.2,0c0.1,0,0.1,0,0.2,0L345.8,141z"/>
		<path fill="#B3B3B3" d="M348.9,145.4c-0.8,0-1.4-0.2-1.8-0.7c-0.4-0.5-0.7-1.1-0.7-1.9v-0.2c0-0.8,0.2-1.4,0.7-1.9
			c0.4-0.5,1-0.8,1.7-0.8c0.7,0,1.3,0.2,1.6,0.7c0.4,0.4,0.6,1,0.6,1.7v0.7h-3.3l0,0c0,0.4,0.1,0.8,0.4,1c0.2,0.3,0.5,0.4,0.9,0.4
			c0.3,0,0.6,0,0.8-0.1s0.5-0.2,0.7-0.3l0.4,0.8c-0.2,0.2-0.5,0.3-0.8,0.4S349.4,145.4,348.9,145.4z M348.8,140.8
			c-0.3,0-0.5,0.1-0.7,0.4s-0.3,0.5-0.4,0.9l0,0h2.1V142c0-0.3-0.1-0.6-0.3-0.8C349.4,140.9,349.1,140.8,348.8,140.8z"/>
		<path fill="#B3B3B3" d="M351.8,142.7c0-0.8,0.2-1.5,0.5-2.1c0.4-0.5,0.9-0.8,1.5-0.8c0.3,0,0.5,0.1,0.8,0.2s0.4,0.3,0.6,0.5v-2.9
			h1.2v7.7h-1l-0.1-0.7c-0.2,0.2-0.4,0.4-0.6,0.6s-0.5,0.2-0.8,0.2c-0.7,0-1.2-0.2-1.5-0.7c-0.4-0.5-0.5-1.1-0.5-1.9V142.7z
			 M352.9,142.8c0,0.5,0.1,0.9,0.3,1.2c0.2,0.3,0.5,0.4,0.9,0.4c0.3,0,0.5-0.1,0.6-0.2c0.2-0.1,0.3-0.3,0.4-0.5v-2.3
			c-0.1-0.2-0.3-0.3-0.4-0.5c-0.2-0.1-0.4-0.2-0.6-0.2c-0.4,0-0.7,0.2-0.9,0.5c-0.2,0.3-0.3,0.8-0.3,1.3V142.8z"/>
		<path fill="#B3B3B3" d="M358.9,138.7h-1.2v-1h1.2V138.7z M358.9,145.3h-1.2V140h1.2V145.3z"/>
		<path fill="#B3B3B3" d="M361.8,138.7v1.3h1v0.9h-1v2.9c0,0.2,0,0.4,0.1,0.5c0.1,0.1,0.2,0.1,0.4,0.1c0.1,0,0.1,0,0.2,0
			c0.1,0,0.1,0,0.2,0l0.1,0.9c-0.1,0.1-0.2,0.1-0.4,0.1s-0.3,0-0.4,0c-0.4,0-0.8-0.1-1-0.4s-0.4-0.7-0.4-1.2v-2.9h-0.8V140h0.8v-1.3
			H361.8z"/>
		<path fill="#B3B3B3" d="M366.8,143.8c0-0.2-0.1-0.3-0.2-0.5c-0.2-0.1-0.5-0.2-0.9-0.3c-0.6-0.1-1.1-0.3-1.4-0.6
			c-0.3-0.2-0.5-0.6-0.5-1c0-0.4,0.2-0.8,0.6-1.1s0.9-0.5,1.5-0.5c0.6,0,1.2,0.2,1.5,0.5c0.4,0.3,0.6,0.7,0.5,1.2l0,0h-1.1
			c0-0.2-0.1-0.4-0.3-0.6c-0.2-0.2-0.4-0.2-0.7-0.2c-0.3,0-0.5,0.1-0.7,0.2s-0.2,0.3-0.2,0.5c0,0.2,0.1,0.3,0.2,0.4s0.4,0.2,0.9,0.3
			c0.7,0.1,1.2,0.3,1.5,0.6c0.3,0.3,0.5,0.6,0.5,1c0,0.5-0.2,0.9-0.6,1.2s-0.9,0.4-1.6,0.4c-0.7,0-1.2-0.2-1.6-0.5s-0.6-0.8-0.6-1.2
			l0,0h1.1c0,0.3,0.1,0.5,0.3,0.7c0.2,0.1,0.5,0.2,0.8,0.2c0.3,0,0.5-0.1,0.7-0.2C366.7,144.2,366.8,144,366.8,143.8z"/>
	</g>
	
		<rect x="165.7" y="210.1" fill="#FFFFFF" stroke="#999999" stroke-width="3.3007" stroke-linecap="round" stroke-linejoin="round" stroke-miterlimit="10" width="54.3" height="54.3"/>
	
		<rect x="220" y="210.1" fill="#FFFFFF" stroke="#999999" stroke-width="3.3007" stroke-linecap="round" stroke-linejoin="round" stroke-miterlimit="10" width="54.3" height="54.3"/>
	
		<rect x="274.3" y="210.1" fill="#FFFFFF" stroke="#999999" stroke-width="3.3007" stroke-linecap="round" stroke-linejoin="round" stroke-miterlimit="10" width="54.3" height="54.3"/>
	
		<line fill="none" stroke="#999999" stroke-width="5" stroke-linecap="round" stroke-linejoin="round" stroke-miterlimit="10" x1="92.7" y1="169.8" x2="148.7" y2="169.8"/>
	
		<line fill="none" stroke="#999999" stroke-width="3" stroke-linecap="round" stroke-linejoin="round" stroke-miterlimit="10" x1="230.7" y1="244.8" x2="262.7" y2="244.8"/>
	
		<line fill="none" stroke="#999999" stroke-width="3" stroke-linecap="round" stroke-linejoin="round" stroke-miterlimit="10" x1="230.7" y1="251.8" x2="262.7" y2="251.8"/>
	
		<line fill="none" stroke="#999999" stroke-width="3" stroke-linecap="round" stroke-linejoin="round" stroke-miterlimit="10" x1="285.7" y1="244.8" x2="317.7" y2="244.8"/>
	
		<line fill="none" stroke="#999999" stroke-width="3" stroke-linecap="round" stroke-linejoin="round" stroke-miterlimit="10" x1="285.7" y1="251.8" x2="317.7" y2="251.8"/>
	
		<line fill="none" stroke="#999999" stroke-width="3" stroke-linecap="round" stroke-linejoin="round" stroke-miterlimit="10" x1="175.7" y1="244.8" x2="207.7" y2="244.8"/>
	
		<line fill="none" stroke="#999999" stroke-width="3" stroke-linecap="round" stroke-linejoin="round" stroke-miterlimit="10" x1="102.7" y1="179.8" x2="134.7" y2="179.8"/>
	
		<line fill="none" stroke="#999999" stroke-width="3" stroke-linecap="round" stroke-linejoin="round" stroke-miterlimit="10" x1="175.7" y1="251.8" x2="207.7" y2="251.8"/>
	<rect x="83.7" y="196.5" fill="#A7CC3F" width="71" height="23.6"/>
	<rect x="333.4" y="176.6" fill="#F5B620" width="39.7" height="8.9"/>
	<rect x="333.4" y="163.6" fill="#A7CC3F" width="39.7" height="8.9"/>
	<g>
		<path fill="#999999" d="M151.7,231.5v17.6h-65v-17.6H151.7 M154.7,228.5h-71v23.6h71V228.5L154.7,228.5z"/>
	</g>
	<rect x="227.9" y="218.1" fill="#E6E6E6" width="36.7" height="19.2"/>
	<rect x="173.9" y="218.1" fill="#E6E6E6" width="36.7" height="19.2"/>
	<rect x="282.9" y="218.1" fill="#E6E6E6" width="36.7" height="19.2"/>
	<path fill="#FC7171" stroke="#FFFFFF" stroke-width="2" stroke-miterlimit="10" d="M174.7,256.8l-5-5.9c-0.4-0.4-0.4-1,0-1.5l5-5.9
		c0.7-0.8,2-0.3,2,0.7v11.7C176.7,257.1,175.3,257.6,174.7,256.8z"/>
	<path fill="#FC7171" stroke="#FFFFFF" stroke-width="2" stroke-miterlimit="10" d="M319.4,243.6l5,5.9c0.4,0.4,0.4,1,0,1.5l-5,5.9
		c-0.7,0.8-2,0.3-2-0.7v-11.7C317.4,243.3,318.8,242.8,319.4,243.6z"/>
	<g>
		
			<linearGradient id="SVGID_1_" gradientUnits="userSpaceOnUse" x1="128.0697" y1="897.2372" x2="136.2152" y2="905.3828" gradientTransform="matrix(1.4286 0 0 -1.4286 -95.4286 1369.0952)">
			<stop  offset="0" style="stop-color:#78B368"/>
			<stop  offset="1" style="stop-color:#CEE01C"/>
		</linearGradient>
		<path fill="url(#SVGID_1_)" d="M93.3,73.3c-4.5,0-8.2,3.7-8.2,8.2c0,4.5,3.7,8.2,8.2,8.2c4.5,0,8.2-3.7,8.2-8.2
			C101.6,77,97.9,73.3,93.3,73.3z M93.3,87.3c-3.2,0-5.8-2.6-5.8-5.8c0-3.2,2.6-5.8,5.8-5.8c3.2,0,5.8,2.6,5.8,5.8
			C99.2,84.7,96.6,87.3,93.3,87.3z"/>
		
			<linearGradient id="SVGID_2_" gradientUnits="userSpaceOnUse" x1="129.9126" y1="899.0143" x2="134.7285" y2="903.8303" gradientTransform="matrix(1.4286 0 0 -1.4286 -95.4286 1369.0952)">
			<stop  offset="0" style="stop-color:#78B368"/>
			<stop  offset="1" style="stop-color:#CEE01C"/>
		</linearGradient>
		<path fill="url(#SVGID_2_)" d="M96.5,77.6c-0.1,0-0.2,0-0.3,0.1c-1.4,1.4-2.3,3.6-2.7,5.3c-0.2-0.4-0.4-0.8-0.7-1.2
			c-0.2-0.4-0.5-0.8-0.8-1.4c-0.1-0.1-0.3-0.5-0.7-0.5s-0.7,0.2-0.8,0.5c-0.1,0.3-0.2,0.7-0.4,1.1c-0.1,0.3-0.2,0.7-0.4,1
			c-0.1-0.1-0.2-0.3-0.3-0.5c-0.1-0.2-0.2-0.4-0.4-0.7c-0.1-0.1-0.2-0.2-0.4-0.2c-0.2,0-0.4,0.1-0.5,0.2c-0.2,0.2-0.2,0.5-0.1,0.7
			c0.4,0.9,0.7,1.2,1.1,1.9c0.1,0.1,0.3,0.4,0.6,0.4c0.3,0,0.5-0.2,0.6-0.4c0.3-0.6,0.6-1.2,0.8-1.7v0c0.7,1.4,1.1,2.5,1.4,3.5
			c0.1,0.4,0.4,0.7,0.7,0.7c0.2,0,0.7,0,0.8-0.6c0.5-2.9,1.4-4.9,2.8-5.9c0.5-0.4,0.1-1.4,0.1-1.5C97.1,78,96.8,77.6,96.5,77.6z"/>
		<g>
			<path fill="#999999" d="M103.6,78.8c-0.1-0.2-0.1-0.4-0.1-0.5s0-0.2,0-0.3c0-0.4,0.1-0.6,0.4-0.8c0.2-0.2,0.6-0.3,1-0.3
				c0.3,0,0.5,0.1,0.7,0.2c0.2,0.1,0.4,0.4,0.4,0.7l1.4,6.2l1.4-6.2c0.1-0.6,0.6-0.9,1.3-0.9c0.5,0,0.8,0.1,0.9,0.3
				c0.2,0.2,0.3,0.4,0.3,0.6l1.4,6.3l1.4-6.3c0.1-0.3,0.2-0.6,0.4-0.7c0.2-0.1,0.4-0.2,0.7-0.2c0.4,0,0.7,0.1,1,0.3s0.3,0.5,0.3,0.8
				c0,0.1,0,0.2,0,0.3c0,0.1,0,0.3-0.1,0.4l-2.4,7.6c-0.1,0.2-0.2,0.4-0.4,0.6c-0.2,0.2-0.5,0.3-1,0.3c-0.5,0-0.8-0.1-1-0.3
				c-0.2-0.2-0.3-0.4-0.4-0.7l-1.3-5.6l-1.2,5.6c-0.1,0.3-0.2,0.6-0.5,0.7c-0.2,0.2-0.6,0.2-0.9,0.2c-0.5,0-0.8-0.1-1-0.3
				c-0.2-0.2-0.3-0.4-0.4-0.7L103.6,78.8z"/>
			<path fill="#999999" d="M116.4,82.2c0-0.8,0.1-1.6,0.3-2.3c0.2-0.7,0.6-1.3,1-1.7c0.4-0.5,0.9-0.8,1.5-1.1
				c0.6-0.2,1.2-0.4,1.9-0.4c0.7,0,1.4,0.1,1.9,0.3c0.6,0.2,1.1,0.6,1.5,1c0.4,0.5,0.7,1,1,1.7c0.2,0.7,0.3,1.5,0.3,2.4
				c0,0.8-0.1,1.6-0.3,2.3c-0.2,0.7-0.6,1.2-1,1.7c-0.4,0.5-0.9,0.8-1.5,1.1c-0.6,0.2-1.2,0.4-1.9,0.4c-0.7,0-1.4-0.1-2-0.4
				c-0.6-0.2-1.1-0.6-1.5-1.1c-0.4-0.5-0.7-1-0.9-1.7C116.5,83.8,116.4,83,116.4,82.2z M121.1,85.4c0.7,0,1.3-0.3,1.7-0.8
				c0.4-0.5,0.6-1.3,0.6-2.4c0-1.1-0.2-2-0.6-2.5c-0.4-0.5-0.9-0.8-1.7-0.8c-0.7,0-1.2,0.3-1.6,0.8c-0.4,0.5-0.6,1.4-0.6,2.4
				c0,1.1,0.2,1.9,0.6,2.5C119.9,85.2,120.5,85.4,121.1,85.4z"/>
			<path fill="#999999" d="M126.7,78c0-0.3,0.1-0.5,0.3-0.7c0.2-0.2,0.5-0.3,0.9-0.3c0.3,0,0.6,0.1,0.8,0.2c0.2,0.1,0.3,0.4,0.3,0.7
				v0.4c0.2-0.4,0.5-0.8,0.9-1.1c0.4-0.3,0.8-0.5,1.3-0.5c0.3,0,0.5,0,0.7,0.1c0.1,0.1,0.3,0.2,0.3,0.3c0.1,0.1,0.1,0.3,0.1,0.4
				c0,0.1,0,0.3,0,0.4c0,0.1,0,0.2,0,0.4c0,0.1-0.1,0.2-0.1,0.4c-0.1,0.1-0.2,0.2-0.3,0.3c-0.1,0.1-0.3,0.2-0.5,0.2
				c-0.2,0-0.5,0.1-0.7,0.2c-0.2,0-0.5,0.1-0.7,0.3c-0.4,0.2-0.6,0.6-0.7,1c-0.1,0.5-0.1,1-0.1,1.7v3.8c0,0.4-0.1,0.7-0.3,0.9
				c-0.2,0.2-0.5,0.3-0.9,0.3c-0.8,0-1.2-0.4-1.2-1.2L126.7,78L126.7,78z"/>
			<path fill="#999999" d="M133.2,74.7c0-0.4,0.1-0.7,0.3-0.9c0.2-0.2,0.5-0.3,1-0.3c0.3,0,0.6,0.1,0.8,0.3c0.2,0.2,0.4,0.5,0.4,0.8
				v5.9l2.7-2.8c0.2-0.2,0.4-0.4,0.6-0.6c0.2-0.1,0.4-0.2,0.7-0.2c0.2,0,0.3,0,0.5,0.1c0.1,0.1,0.3,0.2,0.4,0.3
				c0.1,0.1,0.2,0.2,0.2,0.3c0,0.1,0.1,0.2,0.1,0.4c0,0.1,0,0.3-0.1,0.4c-0.1,0.1-0.2,0.3-0.3,0.4l-2,2.1l2.7,4.6
				c0.1,0.1,0.1,0.2,0.2,0.4c0,0.1,0.1,0.2,0.1,0.3c0,0.3-0.1,0.6-0.3,0.8c-0.2,0.2-0.5,0.3-0.9,0.3c-0.3,0-0.6-0.1-0.8-0.3
				c-0.2-0.2-0.4-0.5-0.6-0.8l-2.1-3.6l-0.9,0.9v2.7c0,0.4-0.1,0.7-0.3,0.8c-0.2,0.2-0.5,0.3-0.9,0.3c-0.8,0-1.3-0.4-1.3-1.1
				L133.2,74.7L133.2,74.7z"/>
			<path fill="#999999" d="M143.1,79.1h-0.8c-0.2,0-0.4-0.1-0.5-0.4c-0.1-0.2-0.1-0.4-0.1-0.7s0-0.5,0.1-0.7
				c0.1-0.2,0.3-0.3,0.5-0.3h0.8v-0.7c0-0.4,0-0.8,0.2-1.2c0.1-0.4,0.3-0.7,0.5-1c0.2-0.3,0.5-0.5,0.9-0.7c0.4-0.2,0.8-0.2,1.3-0.2
				c0.3,0,0.6,0,0.9,0c0.3,0,0.6,0.1,0.8,0.2c0.2,0.1,0.4,0.2,0.6,0.4c0.1,0.2,0.2,0.4,0.2,0.7c0,0.1,0,0.2,0,0.4s0,0.2-0.1,0.3
				c-0.1,0.3-0.4,0.4-0.7,0.4c-0.3,0-0.5,0-0.7-0.2c-0.2-0.1-0.4-0.2-0.7-0.2c-0.5,0-0.7,0.3-0.7,1V77h1.3c0.2,0,0.4,0.1,0.5,0.3
				s0.1,0.5,0.1,0.7c0,0.2,0,0.5-0.2,0.7c-0.1,0.2-0.3,0.3-0.5,0.3h-1.3v7.2c0,0.4-0.1,0.7-0.3,0.8c-0.2,0.2-0.5,0.3-0.9,0.3
				c-0.4,0-0.7-0.1-0.9-0.3c-0.2-0.2-0.3-0.5-0.3-0.8L143.1,79.1L143.1,79.1z"/>
			<path fill="#999999" d="M148.3,78c0-0.4,0.1-0.7,0.3-0.8c0.2-0.2,0.5-0.3,0.9-0.3c0.4,0,0.7,0.1,0.9,0.2s0.4,0.4,0.4,0.8v5.3
				c0,0.3,0,0.5,0,0.7c0,0.2,0.1,0.4,0.1,0.5c0.1,0.3,0.3,0.5,0.5,0.6c0.2,0.1,0.5,0.2,0.8,0.2c0.3,0,0.6,0,0.8-0.2
				c0.2-0.1,0.4-0.3,0.6-0.4c0.1-0.2,0.3-0.4,0.4-0.5c0.1-0.2,0.1-0.4,0.2-0.5c0-0.2,0.1-0.5,0.1-0.8c0-0.3,0-0.5,0-0.7v-4.1
				c0-0.4,0.1-0.7,0.3-0.9c0.2-0.2,0.5-0.3,1-0.3c0.4,0,0.7,0.1,0.9,0.3c0.2,0.2,0.3,0.5,0.3,0.8v8.1c0,0.4-0.1,0.7-0.3,0.9
				c-0.2,0.2-0.5,0.3-0.9,0.3c-0.3,0-0.6-0.1-0.8-0.2c-0.2-0.1-0.4-0.5-0.4-0.9v-0.2c-0.2,0.4-0.6,0.7-1,1.1c-0.5,0.3-1,0.5-1.8,0.5
				c-1.1,0-2-0.4-2.5-1.2c-0.3-0.5-0.5-1-0.6-1.5s-0.1-1.1-0.1-1.6L148.3,78L148.3,78z"/>
			<path fill="#999999" d="M158.2,74.6c0-0.8,0.4-1.1,1.3-1.1c0.3,0,0.6,0.1,0.8,0.2c0.2,0.2,0.4,0.4,0.4,0.8v11.8
				c0,0.4-0.1,0.7-0.3,0.8c-0.2,0.2-0.5,0.3-0.9,0.3c-0.8,0-1.3-0.4-1.3-1.1V74.6z"/>
		</g>
	</g>
	<path fill="#CCCCCC" d="M106.6,151.2c0.4-2.3,1.9-3.1,4-3.5c1-0.2,1.9-0.5,2.9-0.8c0.5-0.2,1-0.4,1.5-0.6c1.5-0.8,1.8-1.8,1.1-3.4
		c-0.7-1.4-1.3-2.9-1.9-4.4c-0.6-1.7-0.9-3.5-0.7-5.4c0.4-3.7,3.1-5.9,6.8-5.9c3.9,0.1,6.5,2.6,6.6,6.6c0.1,2.4-0.6,4.6-1.5,6.8
		c-0.3,0.6-0.6,1.2-0.9,1.9c-1,2-0.6,3.2,1.5,4c1.3,0.5,2.6,0.8,3.9,1.1c0.5,0.1,0.9,0.2,1.4,0.4c1.4,0.5,2.3,1.4,2.4,2.9
		c0.1,1.1,0,2.2,0,3.4c-0.2,0-0.4,0.1-0.7,0.1c-9.5,3.8-15.5,4.2-25.7,0c-0.2-0.1-0.5,0-0.7-0.1
		C106.6,153.4,106.6,152.3,106.6,151.2z"/>
	
		<circle fill="none" stroke="#999999" stroke-width="3" stroke-linecap="round" stroke-linejoin="round" stroke-miterlimit="10" cx="119.7" cy="137.7" r="21"/>
	
		<rect x="172.4" y="106" fill="#FFFFFF" stroke="#999999" stroke-width="2" stroke-linecap="round" stroke-linejoin="round" stroke-miterlimit="10" width="148" height="46.7"/>
	
		<rect x="172.4" y="157.7" fill="#FFFFFF" stroke="#999999" stroke-width="2" stroke-linecap="round" stroke-linejoin="round" stroke-miterlimit="10" width="148" height="46.7"/>
	<g>
		<path fill="#999999" d="M196.1,111.7c10.2,0,18.4,8.2,18.4,18.4s-8.2,18.4-18.4,18.4c-10.2,0-18.4-8.2-18.4-18.4
			S185.9,111.7,196.1,111.7 M196.1,109.7c-11.2,0-20.4,9.2-20.4,20.4c0,11.2,9.2,20.4,20.4,20.4c11.2,0,20.4-9.2,20.4-20.4
			C216.5,118.8,207.3,109.7,196.1,109.7L196.1,109.7z"/>
	</g>
	<g>
		<defs>
			<circle id="SVGID_3_" cx="196.1" cy="129.6" r="18.4"/>
		</defs>
		<clipPath id="SVGID_4_">
			<use xlink:href="#SVGID_3_"  overflow="visible"/>
		</clipPath>
		<g clip-path="url(#SVGID_4_)">
			<g>
				<path fill="#E6E6E6" stroke="#999999" stroke-miterlimit="10" d="M198.8,142.6c-2.4-0.1-3.8-1.7-6.6-1.6c-0.6,0-1.1,0.1-2.1,0.2
					v17.6c0,1.4,3,4,4.4,4h6.2c1.4,0,0.5-2.7,0.5-4v-17.3C201.2,142.1,200.1,142.6,198.8,142.6z"/>
			</g>
			
				<path fill="none" stroke="#999999" stroke-width="0.852" stroke-linecap="round" stroke-linejoin="round" stroke-miterlimit="10" d="
				M192.7,161.8h7c1.6,0,2.8-1.3,2.8-2.8v-23.5c0-1.6-1.3-2.8-2.8-2.8h-7c-1.6,0-2.8,1.3-2.8,2.8V159
				C189.8,160.6,191.1,161.8,192.7,161.8z"/>
			
				<path fill="#FFFFFF" stroke="#999999" stroke-width="0.852" stroke-linecap="round" stroke-linejoin="round" stroke-miterlimit="10" d="
				M197.9,117.7L197.9,117.7c-1-0.8-2.4-0.8-3.4,0l0,0c-0.8,0.7-1.2,1.8-0.9,2.8l1,2.1c0.2,0.4,0.1,0.9-0.2,1.3l-2.2,2.7h4.1h4.1
				l-2.2-2.7c-0.3-0.4-0.4-0.9-0.2-1.3l1-2.1C199.1,119.5,198.7,118.4,197.9,117.7z"/>
			
				<line fill="#E6E6E6" stroke="#999999" stroke-linecap="round" stroke-linejoin="round" stroke-miterlimit="10" x1="201.7" y1="136.8" x2="197.7" y2="136.8"/>
			
				<line fill="#E6E6E6" stroke="#999999" stroke-linecap="round" stroke-linejoin="round" stroke-miterlimit="10" x1="201.7" y1="145.8" x2="199.7" y2="145.8"/>
			
				<line fill="#E6E6E6" stroke="#999999" stroke-linecap="round" stroke-linejoin="round" stroke-miterlimit="10" x1="201.7" y1="143.8" x2="199.7" y2="143.8"/>
			
				<line fill="#E6E6E6" stroke="#999999" stroke-linecap="round" stroke-linejoin="round" stroke-miterlimit="10" x1="201.7" y1="141.8" x2="199.7" y2="141.8"/>
			
				<line fill="#E6E6E6" stroke="#999999" stroke-linecap="round" stroke-linejoin="round" stroke-miterlimit="10" x1="201.7" y1="139.8" x2="199.7" y2="139.8"/>
			
				<line fill="#E6E6E6" stroke="#999999" stroke-linecap="round" stroke-linejoin="round" stroke-miterlimit="10" x1="201.7" y1="155.8" x2="199.7" y2="155.8"/>
			
				<line fill="#E6E6E6" stroke="#999999" stroke-linecap="round" stroke-linejoin="round" stroke-miterlimit="10" x1="201.7" y1="153.8" x2="199.7" y2="153.8"/>
			
				<line fill="#E6E6E6" stroke="#999999" stroke-linecap="round" stroke-linejoin="round" stroke-miterlimit="10" x1="201.7" y1="151.8" x2="199.7" y2="151.8"/>
			
				<line fill="#E6E6E6" stroke="#999999" stroke-linecap="round" stroke-linejoin="round" stroke-miterlimit="10" x1="201.7" y1="149.8" x2="199.7" y2="149.8"/>
			
				<line fill="#E6E6E6" stroke="#999999" stroke-linecap="round" stroke-linejoin="round" stroke-miterlimit="10" x1="201.7" y1="147.8" x2="197.7" y2="147.8"/>
			
				<line fill="#E6E6E6" stroke="#999999" stroke-linecap="round" stroke-linejoin="round" stroke-miterlimit="10" x1="201.7" y1="158.8" x2="197.7" y2="158.8"/>
			
				<line fill="none" stroke="#999999" stroke-width="1.0723" stroke-linecap="round" stroke-linejoin="round" stroke-miterlimit="10" x1="196.4" y1="118" x2="196.4" y2="118"/>
			<path fill="#A7CC3F" stroke="#999999" stroke-width="0.852" stroke-miterlimit="10" d="M191.3,132.6h9.8c0.8,0,1.4-0.6,1.4-1.4
				v-3.1c0-0.8-0.6-1.4-1.4-1.4h-9.8c-0.8,0-1.4,0.6-1.4,1.4v3.1C189.8,132,190.5,132.6,191.3,132.6z"/>
		</g>
	</g>
	<g>
		<path fill="#FFFFFF" d="M196.4,200.9c-10.3,0-18.7-8.4-18.7-18.7c0-10.3,8.4-18.7,18.7-18.7s18.7,8.4,18.7,18.7
			C215.1,192.5,206.7,200.9,196.4,200.9z"/>
		<path fill="#999999" d="M196.4,164.4c9.8,0,17.7,7.9,17.7,17.7c0,9.8-7.9,17.7-17.7,17.7c-9.8,0-17.7-7.9-17.7-17.7
			C178.7,172.4,186.6,164.4,196.4,164.4 M196.4,162.4c-10.9,0-19.7,8.9-19.7,19.7s8.9,19.7,19.7,19.7c10.9,0,19.7-8.9,19.7-19.7
			S207.3,162.4,196.4,162.4L196.4,162.4z"/>
	</g>
	<g>
		<defs>
			<circle id="SVGID_5_" cx="196.4" cy="181.7" r="17.7"/>
		</defs>
		<clipPath id="SVGID_6_">
			<use xlink:href="#SVGID_5_"  overflow="visible"/>
		</clipPath>
		<g clip-path="url(#SVGID_6_)">
			
				<rect x="183.2" y="175.9" fill="#E6E6E6" stroke="#999999" stroke-width="0.737" stroke-linecap="round" stroke-linejoin="round" stroke-miterlimit="10" width="27.1" height="35.6"/>
			
				<rect x="185" y="177.8" fill="#FFFFFF" stroke="#999999" stroke-width="0.2457" stroke-linecap="round" stroke-linejoin="round" stroke-miterlimit="10" width="23.5" height="31.9"/>
			<g>
				<path fill="#FFFFFF" stroke="#999999" stroke-linecap="round" stroke-linejoin="round" stroke-miterlimit="10" d="M198.1,175.8
					c0.6-2,1.1-3.4,1.1-4c0-1.4-1.1-2.8-2.5-2.8c-1.4,0-2.5,1.5-2.5,2.9c0,0.6,0.6,1.9,1.1,3.9H190l1.3,4h11l1.3-4H198.1z"/>
				
					<circle fill="none" stroke="#999999" stroke-width="0.2457" stroke-linecap="round" stroke-linejoin="round" stroke-miterlimit="10" cx="196.8" cy="171.6" r="1"/>
			</g>
			
				<rect x="188.3" y="182.8" fill="#FFFFFF" stroke="#999999" stroke-width="0.737" stroke-linecap="round" stroke-linejoin="round" stroke-miterlimit="10" width="2.5" height="2.5"/>
			
				<line fill="none" stroke="#999999" stroke-linecap="round" stroke-linejoin="round" stroke-miterlimit="10" x1="192.7" y1="182.8" x2="202.7" y2="182.8"/>
			
				<line fill="none" stroke="#999999" stroke-linecap="round" stroke-linejoin="round" stroke-miterlimit="10" x1="192.7" y1="184.8" x2="199.7" y2="184.8"/>
			
				<rect x="188.3" y="187.8" fill="#FFFFFF" stroke="#999999" stroke-width="0.737" stroke-linecap="round" stroke-linejoin="round" stroke-miterlimit="10" width="2.5" height="2.5"/>
			
				<line fill="none" stroke="#999999" stroke-linecap="round" stroke-linejoin="round" stroke-miterlimit="10" x1="192.7" y1="189.8" x2="204.7" y2="189.8"/>
			
				<rect x="188.3" y="192.7" fill="#FFFFFF" stroke="#999999" stroke-width="0.737" stroke-linecap="round" stroke-linejoin="round" stroke-miterlimit="10" width="2.5" height="2.5"/>
			
				<line fill="none" stroke="#999999" stroke-linecap="round" stroke-linejoin="round" stroke-miterlimit="10" x1="192.7" y1="193.8" x2="203.7" y2="193.8"/>
			
				<line fill="none" stroke="#999999" stroke-linecap="round" stroke-linejoin="round" stroke-miterlimit="10" x1="192.7" y1="194.8" x2="196.7" y2="194.8"/>
			
				<rect x="188.3" y="197.7" fill="#FFFFFF" stroke="#999999" stroke-width="0.737" stroke-linecap="round" stroke-linejoin="round" stroke-miterlimit="10" width="2.5" height="2.5"/>
			
				<line fill="none" stroke="#999999" stroke-linecap="round" stroke-linejoin="round" stroke-miterlimit="10" x1="192.7" y1="198.8" x2="201.7" y2="198.8"/>
			
				<rect x="188.3" y="202.7" fill="#FFFFFF" stroke="#999999" stroke-width="0.737" stroke-linecap="round" stroke-linejoin="round" stroke-miterlimit="10" width="2.5" height="2.5"/>
			
				<line fill="none" stroke="#999999" stroke-linecap="round" stroke-linejoin="round" stroke-miterlimit="10" x1="192.7" y1="204.8" x2="204.7" y2="204.8"/>
			
				<path fill="none" stroke="#FC7171" stroke-width="0.737" stroke-linecap="round" stroke-linejoin="round" stroke-miterlimit="10" d="
				M189,183c0,0,0.9,1.9,0.9,1.4c0-0.8,0.5-2,1.2-2.6"/>
			
				<path fill="none" stroke="#FC7171" stroke-width="0.737" stroke-linecap="round" stroke-linejoin="round" stroke-miterlimit="10" d="
				M189,188.2c0,0,0.9,1.9,0.9,1.4c0-0.8,0.5-2,1.2-2.6"/>
		</g>
	</g>
	
		<line fill="none" stroke="#999999" stroke-width="5" stroke-linecap="round" stroke-linejoin="round" stroke-miterlimit="10" x1="226.7" y1="121.8" x2="282.7" y2="121.8"/>
	
		<line fill="none" stroke="#999999" stroke-width="2" stroke-linecap="round" stroke-linejoin="round" stroke-miterlimit="10" x1="225.7" y1="130.3" x2="296.7" y2="130.3"/>
	
		<line fill="none" stroke="#999999" stroke-width="2" stroke-linecap="round" stroke-linejoin="round" stroke-miterlimit="10" x1="225.7" y1="136.3" x2="277.7" y2="136.3"/>
	
		<line fill="none" stroke="#999999" stroke-width="2" stroke-linecap="round" stroke-linejoin="round" stroke-miterlimit="10" x1="225.7" y1="142.3" x2="266.7" y2="142.3"/>
	
		<line fill="none" stroke="#999999" stroke-width="5" stroke-linecap="round" stroke-linejoin="round" stroke-miterlimit="10" x1="226.7" y1="172.8" x2="282.7" y2="172.8"/>
	
		<line fill="none" stroke="#999999" stroke-width="2" stroke-linecap="round" stroke-linejoin="round" stroke-miterlimit="10" x1="225.7" y1="181.3" x2="296.7" y2="181.3"/>
	
		<line fill="none" stroke="#999999" stroke-width="2" stroke-linecap="round" stroke-linejoin="round" stroke-miterlimit="10" x1="225.7" y1="187.3" x2="277.7" y2="187.3"/>
	
		<line fill="none" stroke="#999999" stroke-width="2" stroke-linecap="round" stroke-linejoin="round" stroke-miterlimit="10" x1="225.7" y1="193.3" x2="266.7" y2="193.3"/>
	
		<rect x="328.7" y="191.8" fill="#FFFFFF" stroke="#999999" stroke-width="2.2579" stroke-linecap="round" stroke-linejoin="round" stroke-miterlimit="10" width="97.3" height="73.2"/>
	<g>
		<rect x="328.2" y="192.8" fill="none" stroke="#999999" stroke-miterlimit="10" width="97" height="73"/>
		<line fill="none" stroke="#999999" stroke-miterlimit="10" x1="328.7" y1="253.8" x2="425.7" y2="253.8"/>
		<line fill="none" stroke="#999999" stroke-miterlimit="10" x1="328.7" y1="241.8" x2="425.7" y2="241.8"/>
		<line fill="none" stroke="#999999" stroke-miterlimit="10" x1="328.7" y1="228.8" x2="425.7" y2="228.8"/>
		<line fill="none" stroke="#999999" stroke-miterlimit="10" x1="328.7" y1="216.8" x2="425.7" y2="216.8"/>
		<line fill="none" stroke="#999999" stroke-miterlimit="10" x1="328.7" y1="204.8" x2="425.7" y2="204.8"/>
		<line fill="none" stroke="#999999" stroke-miterlimit="10" x1="409.2" y1="192.3" x2="409.2" y2="265.3"/>
		<line fill="none" stroke="#999999" stroke-miterlimit="10" x1="393.2" y1="192.3" x2="393.2" y2="265.3"/>
		<line fill="none" stroke="#999999" stroke-miterlimit="10" x1="377.2" y1="192.3" x2="377.2" y2="265.3"/>
		<line fill="none" stroke="#999999" stroke-miterlimit="10" x1="360.2" y1="192.3" x2="360.2" y2="265.3"/>
		<line fill="none" stroke="#999999" stroke-miterlimit="10" x1="344.2" y1="192.3" x2="344.2" y2="265.3"/>
	</g>
	
		<rect x="378.1" y="100.4" fill="#FFFFFF" stroke="#999999" stroke-width="2" stroke-linecap="round" stroke-linejoin="round" stroke-miterlimit="10" width="47.9" height="18.5"/>
	
		<rect x="378.1" y="118.6" fill="#7EB4F1" stroke="#999999" stroke-width="2" stroke-linecap="round" stroke-linejoin="round" stroke-miterlimit="10" width="47.9" height="18.5"/>
	
		<rect x="378.1" y="136.8" fill="#FFFFFF" stroke="#999999" stroke-width="2" stroke-linecap="round" stroke-linejoin="round" stroke-miterlimit="10" width="47.9" height="18.5"/>
	
		<rect x="378.1" y="155" fill="#FFFFFF" stroke="#999999" stroke-width="2" stroke-linecap="round" stroke-linejoin="round" stroke-miterlimit="10" width="47.9" height="18.5"/>
	
		<rect x="378.1" y="173.2" fill="#FFFFFF" stroke="#999999" stroke-width="2" stroke-linecap="round" stroke-linejoin="round" stroke-miterlimit="10" width="47.9" height="18.5"/>
</g>
<path fill="#CCCCCC" d="M259.7,287.5h-26.1c-5.3,0-9.7-4.3-9.7-9.7v0h45.5v0C269.4,283.2,265.1,287.5,259.7,287.5z"/>
</svg>
