<?xml version="1.0" encoding="utf-8"?>
<!-- Generator: Adobe Illustrator 18.1.1, SVG Export Plug-In . SVG Version: 6.00 Build 0)  -->
<svg version="1.1" id="Layer_1" xmlns="http://www.w3.org/2000/svg" xmlns:xlink="http://www.w3.org/1999/xlink" x="0px" y="0px"
	 viewBox="0 0 144 44" enable-background="new 0 0 144 44" xml:space="preserve">
<g>
	<linearGradient id="SVGID_1_" gradientUnits="userSpaceOnUse" x1="7.5906" y1="33.0523" x2="28.9563" y2="11.6867">
		<stop  offset="0" style="stop-color:#78B368"/>
		<stop  offset="1" style="stop-color:#CEE01C"/>
	</linearGradient>
	<path fill="url(#SVGID_1_)" d="M18.3,7.3C9.9,7.3,3.2,14,3.2,22.4c0,8.3,6.8,15.1,15.1,15.1s15.1-6.8,15.1-15.1
		C33.4,14,26.6,7.3,18.3,7.3z M18.3,33c-5.9,0-10.7-4.8-10.7-10.7c0-5.9,4.8-10.7,10.7-10.7s10.7,4.8,10.7,10.7
		C28.9,28.2,24.1,33,18.3,33z"/>
	<linearGradient id="SVGID_2_" gradientUnits="userSpaceOnUse" x1="12.3865" y1="28.3455" x2="24.9996" y2="15.7324">
		<stop  offset="0" style="stop-color:#78B368"/>
		<stop  offset="1" style="stop-color:#CEE01C"/>
	</linearGradient>
	<path fill="url(#SVGID_2_)" d="M24,15.1c-0.2,0-0.4,0-0.6,0.3c-2.7,2.5-4.2,6.6-4.9,9.8c-0.4-0.8-0.8-1.4-1.2-2.3
		c-0.4-0.7-0.9-1.5-1.5-2.6c-0.1-0.2-0.5-0.9-1.2-0.9c-0.7,0-1.3,0.4-1.5,0.9c-0.2,0.6-0.5,1.3-0.7,2c-0.2,0.6-0.4,1.3-0.7,1.9
		c-0.2-0.3-0.3-0.6-0.5-0.9c-0.2-0.4-0.4-0.8-0.7-1.3c-0.2-0.3-0.4-0.4-0.8-0.4c-0.3,0-0.6,0.2-0.9,0.4c-0.3,0.4-0.3,0.9-0.1,1.3
		c0.8,1.6,1.2,2.3,2,3.4c0.1,0.2,0.5,0.7,1.1,0.7c0.5,0,0.9-0.4,1.1-0.8c0.6-1.1,1-2.1,1.5-3.2l0,0c1.3,2.6,2,4.6,2.6,6.3
		c0.2,0.8,0.8,1.3,1.4,1.3c0.4,0,1.2,0,1.4-1.1c0.9-5.4,2.7-9,5.2-10.8c1-0.7,0.2-2.6,0.2-2.8C25.2,16,24.7,15.1,24,15.1z"/>
	<g>
		<linearGradient id="SVGID_3_" gradientUnits="userSpaceOnUse" x1="48.2147" y1="32.8254" x2="48.2147" y2="13.6503">
			<stop  offset="0" style="stop-color:#4D4D4D"/>
			<stop  offset="1" style="stop-color:#666666"/>
		</linearGradient>
		<path fill="url(#SVGID_3_)" d="M36.6,17.1c-0.1-0.4-0.2-0.7-0.2-0.9c0-0.2,0-0.4,0-0.5c0-0.7,0.2-1.2,0.7-1.5s1-0.5,1.8-0.5
			c0.5,0,1,0.1,1.3,0.4c0.4,0.2,0.7,0.7,0.8,1.3l2.5,11.3l2.5-11.4c0.2-1.1,1-1.6,2.3-1.6c0.8,0,1.4,0.2,1.7,0.5
			c0.3,0.3,0.5,0.7,0.6,1.2l2.5,11.6l2.6-11.6c0.1-0.6,0.4-1.1,0.7-1.3c0.3-0.2,0.8-0.4,1.3-0.4c0.8,0,1.4,0.2,1.8,0.6
			c0.4,0.4,0.6,0.9,0.6,1.5c0,0.2,0,0.4-0.1,0.6c0,0.2-0.1,0.5-0.2,0.8l-4.3,14c-0.1,0.4-0.3,0.8-0.7,1.1c-0.3,0.4-0.9,0.5-1.8,0.5
			c-0.9,0-1.5-0.2-1.8-0.5c-0.3-0.3-0.5-0.8-0.7-1.3l-2.4-10.2l-2.3,10.2c-0.1,0.6-0.4,1-0.9,1.3c-0.5,0.3-1,0.4-1.7,0.4
			c-0.8,0-1.4-0.2-1.8-0.5c-0.3-0.3-0.6-0.7-0.7-1.3L36.6,17.1z"/>
		<linearGradient id="SVGID_4_" gradientUnits="userSpaceOnUse" x1="68.797" y1="33.1872" x2="68.797" y2="13.2885">
			<stop  offset="0" style="stop-color:#4D4D4D"/>
			<stop  offset="1" style="stop-color:#666666"/>
		</linearGradient>
		<path fill="url(#SVGID_4_)" d="M60.1,23.3c0-1.5,0.2-2.9,0.6-4.2c0.4-1.2,1-2.3,1.8-3.2c0.8-0.9,1.7-1.5,2.8-2
			c1.1-0.5,2.2-0.7,3.6-0.7c1.3,0,2.5,0.2,3.6,0.6c1.1,0.4,2,1,2.7,1.9c0.8,0.8,1.3,1.9,1.8,3.1c0.4,1.2,0.6,2.7,0.6,4.3
			c0,1.6-0.2,3-0.6,4.2c-0.4,1.2-1,2.3-1.8,3.1c-0.8,0.9-1.7,1.5-2.7,2c-1.1,0.4-2.2,0.7-3.6,0.7c-1.4,0-2.6-0.2-3.6-0.7
			c-1.1-0.4-2-1.1-2.7-2c-0.8-0.9-1.3-1.9-1.7-3.1C60.3,26.2,60.1,24.9,60.1,23.3z M68.8,29.2c1.3,0,2.3-0.5,3.1-1.4
			c0.7-1,1.1-2.4,1.1-4.4c0-2-0.4-3.6-1.1-4.6c-0.7-1-1.7-1.5-3.1-1.5c-1.3,0-2.2,0.5-3,1.5c-0.7,1-1.1,2.5-1.1,4.5
			c0,2.1,0.4,3.6,1.1,4.5C66.5,28.8,67.5,29.2,68.8,29.2z"/>
		<linearGradient id="SVGID_5_" gradientUnits="userSpaceOnUse" x1="84.1765" y1="32.8254" x2="84.1765" y2="13.2885">
			<stop  offset="0" style="stop-color:#4D4D4D"/>
			<stop  offset="1" style="stop-color:#666666"/>
		</linearGradient>
		<path fill="url(#SVGID_5_)" d="M78.9,15.6c0-0.5,0.2-1,0.5-1.4c0.3-0.4,0.9-0.6,1.7-0.6c0.6,0,1.1,0.1,1.5,0.4
			c0.4,0.2,0.6,0.7,0.6,1.3v0.8c0.4-0.8,1-1.4,1.7-2c0.7-0.6,1.5-0.8,2.4-0.8c0.5,0,0.9,0.1,1.2,0.3c0.3,0.2,0.5,0.4,0.6,0.6
			c0.1,0.2,0.2,0.5,0.3,0.8c0,0.3,0.1,0.5,0.1,0.7c0,0.2,0,0.4-0.1,0.7c0,0.2-0.1,0.5-0.2,0.7c-0.1,0.2-0.3,0.4-0.5,0.6
			c-0.2,0.2-0.6,0.3-1,0.4c-0.5,0.1-0.9,0.2-1.3,0.3c-0.4,0.1-0.9,0.3-1.4,0.5c-0.7,0.4-1.1,1-1.3,1.9c-0.2,0.9-0.3,1.9-0.3,3v7
			c0,0.7-0.2,1.3-0.5,1.6c-0.3,0.3-0.9,0.5-1.7,0.5c-1.5,0-2.2-0.7-2.2-2.1V15.6z"/>
		<linearGradient id="SVGID_6_" gradientUnits="userSpaceOnUse" x1="98.3584" y1="32.8254" x2="98.3584" y2="7.2105">
			<stop  offset="0" style="stop-color:#4D4D4D"/>
			<stop  offset="1" style="stop-color:#666666"/>
		</linearGradient>
		<path fill="url(#SVGID_6_)" d="M90.9,9.5c0-0.7,0.2-1.3,0.6-1.7c0.4-0.4,1-0.6,1.8-0.6c0.6,0,1.1,0.2,1.5,0.5
			c0.4,0.3,0.7,0.9,0.7,1.6v10.9l4.9-5.1c0.4-0.5,0.8-0.8,1.1-1c0.3-0.2,0.7-0.4,1.2-0.4c0.3,0,0.6,0.1,0.9,0.2
			c0.3,0.2,0.5,0.3,0.7,0.6c0.2,0.2,0.3,0.4,0.4,0.6c0.1,0.2,0.1,0.5,0.1,0.8c0,0.3-0.1,0.5-0.2,0.8c-0.1,0.3-0.3,0.5-0.6,0.8
			l-3.7,3.8l4.9,8.4c0.1,0.2,0.2,0.4,0.3,0.7c0.1,0.2,0.1,0.4,0.1,0.6c0,0.6-0.2,1-0.6,1.4c-0.4,0.4-1,0.6-1.7,0.6
			c-0.6,0-1.1-0.2-1.5-0.5c-0.4-0.4-0.7-0.9-1.1-1.5l-3.8-6.7l-1.6,1.7v5c0,0.7-0.2,1.2-0.6,1.6c-0.4,0.3-0.9,0.5-1.6,0.5
			c-1.6,0-2.3-0.7-2.3-2V9.5z"/>
		<linearGradient id="SVGID_7_" gradientUnits="userSpaceOnUse" x1="112.6503" y1="32.8254" x2="112.6503" y2="6.8487">
			<stop  offset="0" style="stop-color:#4D4D4D"/>
			<stop  offset="1" style="stop-color:#666666"/>
		</linearGradient>
		<path fill="url(#SVGID_7_)" d="M109,17.6h-1.4c-0.4,0-0.7-0.3-0.9-0.7c-0.2-0.4-0.3-0.8-0.3-1.2c0-0.4,0.1-0.8,0.3-1.2
			c0.2-0.4,0.5-0.6,0.9-0.6h1.4v-1.4c0-0.8,0.1-1.5,0.3-2.2c0.2-0.7,0.5-1.3,1-1.8c0.4-0.5,1-0.9,1.6-1.2c0.7-0.3,1.4-0.4,2.3-0.4
			c0.6,0,1.1,0,1.7,0.1c0.5,0.1,1,0.2,1.4,0.4c0.4,0.2,0.8,0.4,1,0.8c0.3,0.3,0.4,0.7,0.4,1.2c0,0.2,0,0.5,0,0.7
			c0,0.2-0.1,0.4-0.2,0.6c-0.2,0.5-0.7,0.7-1.2,0.7c-0.5,0-0.9-0.1-1.2-0.3c-0.3-0.2-0.8-0.3-1.3-0.3c-0.9,0-1.3,0.6-1.3,1.9v1.3
			h2.4c0.5,0,0.8,0.2,0.9,0.6c0.2,0.4,0.3,0.8,0.3,1.2c0,0.4-0.1,0.9-0.3,1.3c-0.2,0.4-0.5,0.6-0.9,0.6h-2.4v13.2
			c0,0.7-0.2,1.2-0.6,1.6c-0.4,0.3-0.9,0.5-1.6,0.5c-0.8,0-1.4-0.2-1.7-0.5c-0.4-0.3-0.5-0.8-0.5-1.5V17.6z"/>
		<linearGradient id="SVGID_8_" gradientUnits="userSpaceOnUse" x1="126.2173" y1="33.1872" x2="126.2173" y2="13.6503">
			<stop  offset="0" style="stop-color:#4D4D4D"/>
			<stop  offset="1" style="stop-color:#666666"/>
		</linearGradient>
		<path fill="url(#SVGID_8_)" d="M118.5,15.6c0-0.7,0.2-1.2,0.5-1.5c0.4-0.3,0.9-0.5,1.7-0.5c0.7,0,1.2,0.2,1.6,0.5
			c0.4,0.3,0.7,0.8,0.7,1.5v9.8c0,0.5,0,1,0.1,1.4c0,0.4,0.1,0.7,0.2,1c0.2,0.5,0.5,0.8,0.9,1c0.4,0.2,0.9,0.3,1.4,0.3
			c0.6,0,1.1-0.1,1.5-0.3c0.4-0.2,0.8-0.5,1.1-0.8c0.3-0.3,0.5-0.6,0.6-1c0.1-0.3,0.3-0.7,0.3-1c0.1-0.4,0.2-0.9,0.2-1.4
			c0-0.5,0-1,0-1.4v-7.4c0-0.7,0.2-1.3,0.5-1.6c0.3-0.3,0.9-0.5,1.8-0.5c0.7,0,1.2,0.2,1.6,0.5c0.4,0.3,0.6,0.8,0.6,1.6v14.9
			c0,0.7-0.2,1.2-0.5,1.6c-0.3,0.4-0.9,0.6-1.7,0.6c-0.6,0-1-0.1-1.5-0.4c-0.4-0.3-0.7-0.8-0.7-1.7v-0.4c-0.4,0.7-1,1.3-1.9,1.9
			c-0.8,0.6-1.9,0.9-3.2,0.9c-2.1,0-3.7-0.7-4.7-2.2c-0.6-0.8-0.9-1.8-1-2.8c-0.1-1.1-0.2-2-0.2-2.9V15.6z"/>
		<linearGradient id="SVGID_9_" gradientUnits="userSpaceOnUse" x1="139.0387" y1="32.8254" x2="139.0387" y2="7.2105">
			<stop  offset="0" style="stop-color:#4D4D4D"/>
			<stop  offset="1" style="stop-color:#666666"/>
		</linearGradient>
		<path fill="url(#SVGID_9_)" d="M136.8,9.3c0-1.4,0.8-2.1,2.4-2.1c0.6,0,1.1,0.2,1.5,0.5c0.4,0.3,0.7,0.8,0.7,1.5v21.6
			c0,0.7-0.2,1.2-0.6,1.6c-0.4,0.3-0.9,0.5-1.6,0.5c-1.6,0-2.3-0.7-2.3-2V9.3z"/>
	</g>
</g>
</svg>
