<?xml version="1.0" encoding="utf-8"?>
<!-- Generator: Adobe Illustrator 18.1.1, SVG Export Plug-In . SVG Version: 6.00 Build 0)  -->
<svg version="1.1" id="Layer_1" xmlns="http://www.w3.org/2000/svg" xmlns:xlink="http://www.w3.org/1999/xlink" x="0px" y="0px"
	 viewBox="0 0 350 80" enable-background="new 0 0 350 80" xml:space="preserve">
<g>
	<linearGradient id="SVGID_1_" gradientUnits="userSpaceOnUse" x1="28.4892" y1="64.204" x2="76.7324" y2="15.9607">
		<stop  offset="0" style="stop-color:#78B368"/>
		<stop  offset="1" style="stop-color:#CEE01C"/>
	</linearGradient>
	<path fill="url(#SVGID_1_)" d="M52.6,6C33.8,6,18.5,21.3,18.5,40.1c0,18.8,15.3,34.1,34.1,34.1s34.1-15.3,34.1-34.1
		C86.7,21.3,71.4,6,52.6,6z M52.6,64.1c-13.3,0-24.1-10.8-24.1-24.1C28.6,26.8,39.3,16,52.6,16s24.1,10.8,24.1,24.1
		C76.7,53.3,65.9,64.1,52.6,64.1z"/>
	<linearGradient id="SVGID_2_" gradientUnits="userSpaceOnUse" x1="39.3183" y1="53.576" x2="67.7985" y2="25.0959">
		<stop  offset="0" style="stop-color:#78B368"/>
		<stop  offset="1" style="stop-color:#CEE01C"/>
	</linearGradient>
	<path fill="url(#SVGID_2_)" d="M65.5,23.7c-0.4,0-0.9,0.1-1.4,0.6c-6,5.7-9.6,15-11,22.1c-0.9-1.7-1.7-3.2-2.8-5.1
		c-0.9-1.6-2-3.5-3.3-5.9c-0.3-0.5-1.2-2-2.7-2c-1.5,0-2.9,0.9-3.3,2.1c-0.5,1.4-1,2.9-1.6,4.4c-0.5,1.4-1,2.9-1.5,4.3
		c-0.4-0.6-0.7-1.3-1.1-2c-0.4-0.8-0.9-1.8-1.5-2.8c-0.4-0.6-1-1-1.7-1c-0.7,0-1.5,0.4-1.9,1c-0.7,0.9-0.8,2-0.3,3
		c1.8,3.7,2.7,5.1,4.6,7.7c0.3,0.5,1.2,1.7,2.5,1.7c1.2,0,2-1,2.4-1.7c1.4-2.5,2.4-4.8,3.4-7.2l0-0.1c2.9,5.9,4.6,10.4,6,14.3
		c0.5,1.8,1.8,3,3.1,3c1,0,2.7,0,3.2-2.5c2.1-12.2,6-20.2,11.7-24.4c2.2-1.6,0.6-5.8,0.4-6.2C68.2,25.6,67.1,23.7,65.5,23.7z"/>
	<g>
		<linearGradient id="SVGID_3_" gradientUnits="userSpaceOnUse" x1="121.2933" y1="64.4436" x2="121.2933" y2="21.1467">
			<stop  offset="0" style="stop-color:#4D4D4D"/>
			<stop  offset="1" style="stop-color:#666666"/>
		</linearGradient>
		<path fill="url(#SVGID_3_)" d="M95,29c-0.3-0.8-0.4-1.5-0.5-2c-0.1-0.5-0.1-0.9-0.1-1.2c0-1.5,0.5-2.6,1.5-3.4
			c1-0.8,2.3-1.2,4.1-1.2c1.1,0,2.2,0.3,3,0.8c0.9,0.5,1.5,1.6,1.8,3l5.6,25.6l5.6-25.7c0.5-2.5,2.3-3.7,5.2-3.7
			c1.9,0,3.2,0.4,3.9,1.1c0.7,0.7,1.2,1.6,1.4,2.6l5.7,26.3l5.8-26.2c0.3-1.4,0.9-2.4,1.7-2.9c0.8-0.5,1.8-0.8,3-0.8
			c1.8,0,3.1,0.4,4,1.3c0.9,0.9,1.3,2,1.3,3.4c0,0.4,0,0.8-0.1,1.4c-0.1,0.5-0.2,1.1-0.4,1.8l-9.8,31.6c-0.3,0.9-0.8,1.7-1.6,2.5
			c-0.8,0.8-2.1,1.2-4,1.2c-2,0-3.3-0.4-4-1.2c-0.7-0.8-1.2-1.8-1.5-2.9l-5.5-23l-5.1,23.1c-0.3,1.4-0.9,2.4-2,3c-1,0.7-2.3,1-3.8,1
			c-1.9,0-3.2-0.4-4-1.1c-0.7-0.7-1.3-1.7-1.7-2.9L95,29z"/>
		<linearGradient id="SVGID_4_" gradientUnits="userSpaceOnUse" x1="167.7676" y1="65.2605" x2="167.7676" y2="20.3297">
			<stop  offset="0" style="stop-color:#4D4D4D"/>
			<stop  offset="1" style="stop-color:#666666"/>
		</linearGradient>
		<path fill="url(#SVGID_4_)" d="M148.1,43c0-3.5,0.5-6.6,1.4-9.4c1-2.8,2.3-5.2,4.1-7.1c1.7-2,3.8-3.5,6.2-4.5c2.4-1,5.1-1.6,8-1.6
			c2.9,0,5.6,0.5,8,1.4c2.4,1,4.5,2.4,6.2,4.2c1.7,1.9,3,4.2,4,7c0.9,2.8,1.4,6.1,1.4,9.8c0,3.5-0.5,6.7-1.4,9.5
			c-1,2.8-2.3,5.1-4,7.1c-1.7,1.9-3.8,3.4-6.2,4.4c-2.4,1-5.1,1.5-8,1.5c-3.1,0-5.8-0.5-8.2-1.5c-2.4-1-4.5-2.5-6.2-4.4
			c-1.7-1.9-3-4.3-3.9-7C148.6,49.6,148.1,46.4,148.1,43z M167.7,56.4c2.9,0,5.2-1.1,6.9-3.2c1.7-2.2,2.5-5.5,2.5-10
			c0-4.6-0.8-8.1-2.5-10.3c-1.6-2.2-3.9-3.3-6.9-3.3c-2.8,0-5.1,1.1-6.7,3.3c-1.6,2.2-2.5,5.6-2.5,10c0,4.6,0.8,8,2.5,10.2
			C162.7,55.3,164.9,56.4,167.7,56.4z"/>
		<linearGradient id="SVGID_5_" gradientUnits="userSpaceOnUse" x1="202.4943" y1="64.4436" x2="202.4943" y2="20.3297">
			<stop  offset="0" style="stop-color:#4D4D4D"/>
			<stop  offset="1" style="stop-color:#666666"/>
		</linearGradient>
		<path fill="url(#SVGID_5_)" d="M190.6,25.6c0-1.2,0.4-2.2,1.1-3.1c0.7-0.9,2-1.3,3.9-1.3c1.4,0,2.6,0.3,3.4,0.8
			c0.9,0.5,1.3,1.5,1.3,2.9v1.8c1-1.7,2.2-3.2,3.8-4.5c1.5-1.3,3.3-1.9,5.5-1.9c1.1,0,2,0.2,2.7,0.6c0.6,0.4,1.1,0.8,1.4,1.4
			c0.3,0.5,0.5,1.1,0.6,1.7c0.1,0.6,0.1,1.1,0.1,1.6c0,0.5,0,1-0.1,1.6c-0.1,0.5-0.3,1-0.5,1.5c-0.3,0.5-0.7,0.9-1.2,1.3
			c-0.5,0.4-1.3,0.7-2.2,0.8c-1,0.2-2,0.4-2.9,0.7c-0.9,0.2-2,0.6-3.1,1.2c-1.6,0.9-2.6,2.3-2.9,4.2c-0.4,2-0.6,4.2-0.6,6.9v15.8
			c0,1.7-0.4,2.9-1.2,3.7c-0.8,0.8-2.1,1.1-3.8,1.1c-3.4,0-5.1-1.6-5.1-4.8V25.6z"/>
		<linearGradient id="SVGID_6_" gradientUnits="userSpaceOnUse" x1="234.5167" y1="64.4436" x2="234.5167" y2="6.6056">
			<stop  offset="0" style="stop-color:#4D4D4D"/>
			<stop  offset="1" style="stop-color:#666666"/>
		</linearGradient>
		<path fill="url(#SVGID_6_)" d="M217.8,11.8c0-1.6,0.4-2.8,1.3-3.8c0.9-0.9,2.2-1.4,4-1.4c1.3,0,2.4,0.4,3.4,1.1
			c1,0.8,1.5,1.9,1.5,3.5v24.6l11.1-11.5c1-1,1.8-1.8,2.6-2.4c0.7-0.5,1.6-0.8,2.7-0.8c0.8,0,1.4,0.2,2,0.5c0.6,0.4,1.1,0.8,1.6,1.3
			c0.4,0.4,0.7,0.9,0.9,1.3c0.2,0.5,0.3,1,0.3,1.8c0,0.6-0.2,1.2-0.5,1.8c-0.3,0.6-0.8,1.2-1.3,1.8l-8.3,8.5l11.1,19
			c0.3,0.5,0.5,1,0.7,1.5c0.2,0.5,0.3,1,0.3,1.4c0,1.3-0.5,2.3-1.4,3.2c-1,0.9-2.2,1.3-3.8,1.3c-1.4,0-2.5-0.4-3.3-1.2
			c-0.8-0.8-1.6-1.9-2.4-3.3l-8.6-15l-3.7,3.8v11.3c0,1.6-0.4,2.8-1.3,3.5c-0.9,0.7-2.1,1.1-3.7,1.1c-3.5,0-5.3-1.5-5.3-4.4V11.8z"
			/>
		<linearGradient id="SVGID_7_" gradientUnits="userSpaceOnUse" x1="266.7875" y1="64.4436" x2="266.7875" y2="5.7886">
			<stop  offset="0" style="stop-color:#4D4D4D"/>
			<stop  offset="1" style="stop-color:#666666"/>
		</linearGradient>
		<path fill="url(#SVGID_7_)" d="M258.6,30.1h-3.3c-0.9-0.1-1.5-0.6-1.9-1.5c-0.4-0.9-0.6-1.8-0.6-2.7c0-0.9,0.2-1.9,0.6-2.8
			c0.4-0.9,1.1-1.4,2-1.4h3.2v-3.1c0-1.8,0.2-3.5,0.7-5.1c0.5-1.6,1.2-2.9,2.2-4.1c1-1.1,2.2-2,3.7-2.7c1.5-0.7,3.3-1,5.3-1
			c1.3,0,2.6,0.1,3.8,0.2c1.2,0.2,2.3,0.5,3.3,0.9c1,0.4,1.7,1,2.3,1.7c0.6,0.7,0.9,1.6,0.9,2.7c0,0.5,0,1-0.1,1.5
			c-0.1,0.5-0.2,0.9-0.5,1.3c-0.5,1.1-1.5,1.6-2.8,1.6c-1.1,0-2-0.2-2.8-0.7c-0.8-0.5-1.7-0.7-2.9-0.7c-2,0-3,1.4-3,4.3v2.9h5.4
			c1,0,1.7,0.5,2.1,1.4c0.4,0.9,0.6,1.9,0.6,2.8c0,1-0.2,1.9-0.7,2.9c-0.4,0.9-1.1,1.4-2,1.4h-5.4v29.7c0,1.6-0.4,2.8-1.3,3.5
			c-0.8,0.7-2.1,1.1-3.6,1.1c-1.8,0-3.1-0.4-3.9-1.1c-0.8-0.8-1.2-1.9-1.2-3.3V30.1z"/>
		<linearGradient id="SVGID_8_" gradientUnits="userSpaceOnUse" x1="297.4215" y1="65.2605" x2="297.4215" y2="21.1467">
			<stop  offset="0" style="stop-color:#4D4D4D"/>
			<stop  offset="1" style="stop-color:#666666"/>
		</linearGradient>
		<path fill="url(#SVGID_8_)" d="M280.1,25.6c0-1.6,0.4-2.7,1.2-3.4c0.8-0.7,2.1-1.1,3.9-1.1c1.5,0,2.7,0.3,3.7,1
			c1,0.7,1.5,1.8,1.5,3.5v22.1c0,1.1,0,2.2,0.1,3.1c0.1,0.9,0.3,1.6,0.5,2.2c0.4,1.1,1.1,1.9,1.9,2.3c0.9,0.4,1.9,0.7,3.2,0.7
			c1.4,0,2.5-0.2,3.5-0.7c0.9-0.5,1.7-1.1,2.4-1.8c0.6-0.7,1.1-1.5,1.5-2.2c0.3-0.8,0.6-1.5,0.7-2.2c0.2-1,0.3-2.1,0.4-3.3
			c0-1.2,0-2.2,0-3.1V25.9c0-1.7,0.4-2.9,1.2-3.6c0.8-0.7,2.1-1.1,4-1.1c1.5,0,2.7,0.4,3.6,1.1c0.9,0.7,1.3,1.9,1.3,3.5v33.7
			c0,1.5-0.4,2.7-1.1,3.6c-0.8,0.9-2.1,1.4-3.9,1.4c-1.3,0-2.4-0.3-3.3-0.9c-1-0.6-1.5-1.9-1.5-3.8v-0.8c-0.9,1.6-2.3,3-4.2,4.4
			c-1.9,1.3-4.3,2-7.3,2c-4.7,0-8.3-1.6-10.5-4.9c-1.3-1.9-2.1-4-2.3-6.4c-0.2-2.4-0.4-4.6-0.4-6.6V25.6z"/>
		<linearGradient id="SVGID_9_" gradientUnits="userSpaceOnUse" x1="326.3718" y1="64.4436" x2="326.3718" y2="6.6056">
			<stop  offset="0" style="stop-color:#4D4D4D"/>
			<stop  offset="1" style="stop-color:#666666"/>
		</linearGradient>
		<path fill="url(#SVGID_9_)" d="M321.2,11.3c0-3.2,1.8-4.7,5.4-4.7c1.3,0,2.4,0.3,3.4,1c1,0.7,1.5,1.8,1.5,3.4v48.9
			c0,1.6-0.4,2.8-1.3,3.5c-0.9,0.7-2.1,1.1-3.7,1.1c-3.5,0-5.3-1.5-5.3-4.4V11.3z"/>
	</g>
</g>
</svg>
