<?xml version="1.0" encoding="utf-8"?>
<!-- Generator: Adobe Illustrator 18.1.1, SVG Export Plug-In . SVG Version: 6.00 Build 0)  -->
<svg version="1.1" id="icon-1" xmlns="http://www.w3.org/2000/svg" xmlns:xlink="http://www.w3.org/1999/xlink" x="0px" y="0px"
	 viewBox="-432 234 94 94" enable-background="new -432 234 94 94" xml:space="preserve">
<path id="tools-7-icon" fill="#D2D2D2" d="M-359.1,263.2c-2,0-3.6-1.6-3.6-3.6c0-2,1.6-3.6,3.6-3.6c2,0,3.6,1.6,3.6,3.6
	C-355.6,261.6-357.2,263.2-359.1,263.2z M-377.3,274.2l1.5-1.5l-2.7-2.7l1.6-1.6l2.7,2.7l1.5-1.5l-2.7-2.7l1.6-1.6l2.7,2.7l1.5-1.5
	l-2.7-2.7l1.6-1.6l2.7,2.7l1.5-1.5l-2.7-2.7l10.2-10.2l9,9l-21,21l3,3l24-24l-15-15l-24,24L-377.3,274.2z M-393.4,303l-16.3,16.3
	l-9-9l2.4-2.4l2.7,2.7l1.5-1.5l-2.7-2.7l1.6-1.6l2.7,2.7l1.5-1.5l-2.7-2.7l1.6-1.6l2.7,2.7l1.5-1.5l-2.7-2.7l1.6-1.6l2.7,2.7
	l1.5-1.5l-2.7-2.7l1.6-1.6l2.7,2.7l1.5-1.5l-5.6-5.7l-19.2,19.2l15,15l19.2-19.2L-393.4,303z M-414.9,244.8l-14.3,14.3l62.4,62.4
	l17.5,3.6l-3.3-17.9L-414.9,244.8z M-362.8,316.4c-0.6,0.6-1.5,0.6-2.1,0l-56.6-56.6c-0.6-0.6-0.6-1.5,0-2.1c0.6-0.6,1.5-0.6,2.1,0
	l56.6,56.6C-362.2,315-362.2,315.9-362.8,316.4z M-357.5,309.1c0.6,0.6,0.6,1.5,0,2.1c-0.6,0.6-1.5,0.6-2.1,0l-56.6-56.6
	c-0.6-0.6-0.6-1.5,0-2.1c0.6-0.6,1.5-0.6,2.1,0L-357.5,309.1z"/>
</svg>
